<svg viewBox="0 0 863 827" fill="none" xmlns="http://www.w3.org/2000/svg">
<path d="M431.5 786C643.854 786 816 750.854 816 707.5C816 664.146 643.854 629 431.5 629C219.147 629 47 664.146 47 707.5C47 750.854 219.147 786 431.5 786Z" fill="black" fill-opacity="0.1"/>
<path d="M594.859 440.238V650.182L629.976 707.413L632.649 711.766H771.212L774.011 440.238H594.859Z" fill="#707070"/>
<path opacity="0.1" d="M594.859 440.238V650.182L629.976 707.413L632.131 440.238H594.859Z" fill="black"/>
<path d="M260.348 434.639V644.583L225.231 701.814L222.558 706.167H83.994L81.195 434.639H260.348Z" fill="#707070"/>
<path opacity="0.1" d="M260.348 434.639V644.583L225.231 701.814L223.075 434.639H260.348Z" fill="black"/>
<path d="M816 430.44V443.037H63V424.842L132.981 388.452H754.416L816 430.44Z" fill="#707070"/>
<path opacity="0.1" d="M816 430.44V443.037H63V424.842L816 430.44Z" fill="black"/>
<path opacity="0.1" d="M170.771 493.424H137.18L123.184 483.626H186.167L170.771 493.424Z" fill="black"/>
<path opacity="0.1" d="M170.771 534.013H137.18L123.184 524.215H186.167L170.771 534.013Z" fill="black"/>
<path opacity="0.1" d="M170.771 591.398H137.18L123.184 581.6H186.167L170.771 591.398Z" fill="black"/>
<path opacity="0.1" d="M170.771 648.782H137.18L123.184 638.985H186.167L170.771 648.782Z" fill="black"/>
<path opacity="0.1" d="M684.435 499.022H718.026L732.022 489.225H669.039L684.435 499.022Z" fill="black"/>
<path opacity="0.1" d="M684.435 539.611H718.026L732.022 529.814H669.039L684.435 539.611Z" fill="black"/>
<path opacity="0.1" d="M684.435 596.996H718.026L732.022 587.199H669.039L684.435 596.996Z" fill="black"/>
<path opacity="0.1" d="M684.435 654.381H718.026L732.022 644.583H669.039L684.435 654.381Z" fill="black"/>
<path d="M532.516 353.427L527.847 383.234C527.847 383.234 504.863 395.444 521.024 395.804C537.184 396.163 613.319 395.804 613.319 395.804C613.319 395.804 628.043 395.804 604.7 382.875L600.031 351.631L532.516 353.427Z" fill="#3F3D56"/>
<path opacity="0.1" d="M517.773 395.48C520.911 392.942 524.285 390.71 527.847 388.812L532.516 359.004L600.031 359.068L604.7 388.452C608.536 390.432 612.152 392.812 615.489 395.551C618.487 394.867 621.763 392.325 604.7 382.875L600.031 351.631L532.516 353.427L527.847 383.234C527.847 383.234 508.534 393.496 517.773 395.48Z" fill="black"/>
<path d="M707.31 145.672H424.519C418.613 145.672 413.824 150.46 413.824 156.367V346.862C413.824 352.768 418.613 357.557 424.519 357.557H707.31C713.216 357.557 718.005 352.768 718.005 346.862V156.367C718.005 150.46 713.216 145.672 707.31 145.672Z" fill="#3F3D56"/>
<path d="M565.914 153.752C566.906 153.752 567.71 152.948 567.71 151.956C567.71 150.965 566.906 150.161 565.914 150.161C564.923 150.161 564.119 150.965 564.119 151.956C564.119 152.948 564.923 153.752 565.914 153.752Z" fill="#F2F2F2"/>
<path d="M718.005 328.288V346.862C718.005 348.266 717.728 349.657 717.191 350.955C716.654 352.252 715.866 353.431 714.873 354.424C713.879 355.418 712.7 356.205 711.403 356.743C710.105 357.28 708.714 357.557 707.31 357.557H424.519C423.115 357.557 421.724 357.28 420.426 356.743C419.129 356.205 417.949 355.418 416.956 354.424C415.963 353.431 415.175 352.252 414.638 350.955C414.101 349.657 413.824 348.266 413.824 346.862V328.288H718.005Z" fill="#3F3D56"/>
<path d="M565.914 349.835C569.683 349.835 572.738 346.78 572.738 343.012C572.738 339.243 569.683 336.189 565.914 336.189C562.146 336.189 559.091 339.243 559.091 343.012C559.091 346.78 562.146 349.835 565.914 349.835Z" fill="#F2F2F2"/>
<path d="M555.281 415.196V418.788H362.071V415.915L362.337 415.196L367.099 402.268H551.331L555.281 415.196Z" fill="#3F3D56"/>
<path d="M629.635 411.681C629.283 413.185 627.954 414.773 624.952 416.274C614.178 421.661 592.272 414.837 592.272 414.837C592.272 414.837 575.393 411.964 575.393 404.423C575.866 404.098 576.361 403.804 576.872 403.543C581.402 401.146 596.42 395.233 623.05 403.793C625.012 404.409 626.764 405.557 628.112 407.11C628.709 407.697 629.158 408.418 629.423 409.212C629.688 410.007 629.761 410.853 629.635 411.681Z" fill="#3F3D56"/>
<path opacity="0.1" d="M629.635 411.681C616.448 416.733 604.694 417.111 592.631 408.732C586.547 404.509 581.02 403.464 576.872 403.543C581.402 401.146 596.42 395.233 623.05 403.793C625.012 404.409 626.764 405.557 628.112 407.11C628.709 407.697 629.158 408.418 629.423 409.212C629.688 410.007 629.761 410.853 629.635 411.681Z" fill="black"/>
<path d="M613.101 408.732C615.679 408.732 617.77 408.089 617.77 407.296C617.77 406.502 615.679 405.859 613.101 405.859C610.522 405.859 608.432 406.502 608.432 407.296C608.432 408.089 610.522 408.732 613.101 408.732Z" fill="#F2F2F2"/>
<path opacity="0.1" d="M555.281 415.196V418.788H362.071V415.915L362.337 415.196H555.281Z" fill="black"/>
<path d="M394.639 194.141C415.762 194.141 432.886 177.018 432.886 155.895C432.886 134.771 415.762 117.648 394.639 117.648C373.516 117.648 356.392 134.771 356.392 155.895C356.392 177.018 373.516 194.141 394.639 194.141Z" fill="#FFB9B9"/>
<path d="M366.457 175.018V235.407H428.86C428.86 235.407 420.808 185.083 424.834 169.985L366.457 175.018Z" fill="#FFB9B9"/>
<path d="M707.71 157H424V315.734H707.71V157Z" fill="#F2F2F2"/>
<path d="M445.432 175.121H443.401V174.137H446.635V180.009H448.679V181H443.176V180.009H445.432V175.121ZM445.849 171.259C445.981 171.259 446.104 171.284 446.218 171.334C446.332 171.38 446.43 171.446 446.512 171.532C446.598 171.619 446.664 171.719 446.71 171.833C446.76 171.942 446.785 172.063 446.785 172.195C446.785 172.323 446.76 172.444 446.71 172.558C446.664 172.672 446.598 172.772 446.512 172.858C446.43 172.945 446.332 173.013 446.218 173.063C446.104 173.109 445.981 173.132 445.849 173.132C445.716 173.132 445.593 173.109 445.479 173.063C445.366 173.013 445.265 172.945 445.179 172.858C445.097 172.772 445.031 172.672 444.98 172.558C444.935 172.444 444.912 172.323 444.912 172.195C444.912 172.063 444.935 171.942 444.98 171.833C445.031 171.719 445.097 171.619 445.179 171.532C445.265 171.446 445.366 171.38 445.479 171.334C445.593 171.284 445.716 171.259 445.849 171.259ZM455.686 181V176.071C455.686 175.857 455.676 175.682 455.658 175.545C455.645 175.408 455.619 175.301 455.583 175.224C455.551 175.142 455.508 175.085 455.453 175.053C455.403 175.021 455.339 175.005 455.262 175.005C455.171 175.005 455.086 175.032 455.009 175.087C454.931 175.142 454.847 175.23 454.756 175.354C454.669 175.477 454.571 175.641 454.462 175.846C454.357 176.046 454.232 176.295 454.086 176.591V181H452.999V176.201C452.999 175.951 452.99 175.748 452.972 175.593C452.958 175.438 452.933 175.317 452.896 175.23C452.865 175.144 452.821 175.085 452.767 175.053C452.712 175.021 452.646 175.005 452.568 175.005C452.486 175.005 452.409 175.028 452.336 175.073C452.263 175.119 452.181 175.201 452.09 175.319C452.003 175.438 451.905 175.6 451.796 175.805C451.687 176.01 451.557 176.272 451.406 176.591V181H450.312V174.137H451.222L451.276 175.442C451.395 175.183 451.509 174.962 451.618 174.779C451.732 174.597 451.848 174.451 451.967 174.342C452.085 174.228 452.211 174.146 452.343 174.096C452.479 174.041 452.63 174.014 452.794 174.014C453.163 174.014 453.443 174.134 453.635 174.376C453.826 174.618 453.922 174.991 453.922 175.497C454.031 175.26 454.138 175.05 454.243 174.868C454.348 174.681 454.46 174.526 454.578 174.403C454.701 174.276 454.836 174.18 454.981 174.116C455.127 174.048 455.296 174.014 455.487 174.014C456.349 174.014 456.779 174.677 456.779 176.003V181H455.686ZM464.354 177.445C464.354 178.056 464.267 178.589 464.094 179.045C463.925 179.501 463.69 179.879 463.39 180.18C463.089 180.48 462.733 180.706 462.323 180.856C461.913 181.007 461.469 181.082 460.99 181.082C460.771 181.082 460.553 181.071 460.334 181.048C460.12 181.025 459.901 180.986 459.678 180.932V183.803H458.488V174.137H459.548L459.623 175.285C459.965 174.816 460.329 174.488 460.717 174.301C461.104 174.109 461.523 174.014 461.975 174.014C462.367 174.014 462.711 174.096 463.007 174.26C463.303 174.424 463.551 174.656 463.752 174.957C463.952 175.253 464.103 175.613 464.203 176.037C464.303 176.456 464.354 176.926 464.354 177.445ZM463.137 177.5C463.137 177.14 463.109 176.81 463.055 176.509C463.005 176.208 462.923 175.951 462.809 175.736C462.695 175.522 462.549 175.356 462.371 175.237C462.193 175.114 461.981 175.053 461.735 175.053C461.585 175.053 461.432 175.078 461.277 175.128C461.122 175.174 460.961 175.253 460.792 175.367C460.628 175.477 460.452 175.625 460.266 175.812C460.083 175.994 459.887 176.222 459.678 176.495V179.824C459.896 179.915 460.127 179.988 460.368 180.043C460.61 180.093 460.847 180.118 461.079 180.118C461.722 180.118 462.225 179.902 462.59 179.469C462.954 179.031 463.137 178.375 463.137 177.5ZM472.16 177.514C472.16 178.047 472.085 178.537 471.935 178.983C471.784 179.425 471.568 179.806 471.285 180.125C471.003 180.439 470.659 180.686 470.253 180.863C469.847 181.036 469.387 181.123 468.872 181.123C468.38 181.123 467.938 181.048 467.546 180.897C467.159 180.743 466.828 180.517 466.555 180.221C466.286 179.924 466.078 179.558 465.933 179.12C465.791 178.683 465.721 178.179 465.721 177.609C465.721 177.076 465.796 176.591 465.946 176.153C466.097 175.711 466.313 175.333 466.596 175.019C466.878 174.7 467.222 174.453 467.628 174.28C468.034 174.103 468.494 174.014 469.009 174.014C469.501 174.014 469.941 174.091 470.328 174.246C470.72 174.396 471.05 174.62 471.319 174.916C471.593 175.208 471.8 175.572 471.941 176.01C472.087 176.447 472.16 176.949 472.16 177.514ZM470.943 177.568C470.943 177.145 470.896 176.775 470.8 176.461C470.709 176.142 470.576 175.878 470.403 175.668C470.23 175.454 470.018 175.294 469.768 175.189C469.521 175.08 469.246 175.025 468.94 175.025C468.585 175.025 468.28 175.096 468.024 175.237C467.774 175.374 467.566 175.559 467.402 175.791C467.243 176.023 467.124 176.295 467.047 176.604C466.974 176.91 466.938 177.231 466.938 177.568C466.938 177.992 466.983 178.364 467.074 178.683C467.17 179.002 467.304 179.268 467.478 179.482C467.651 179.692 467.86 179.852 468.106 179.961C468.353 180.066 468.631 180.118 468.94 180.118C469.296 180.118 469.599 180.05 469.85 179.913C470.105 179.772 470.312 179.585 470.472 179.353C470.636 179.12 470.754 178.851 470.827 178.546C470.905 178.236 470.943 177.91 470.943 177.568ZM474.163 174.137H475.25L475.284 175.401C475.69 174.914 476.089 174.561 476.48 174.342C476.877 174.123 477.276 174.014 477.677 174.014C478.388 174.014 478.925 174.244 479.29 174.704C479.659 175.164 479.83 175.848 479.803 176.755H478.6C478.613 176.153 478.524 175.718 478.333 175.449C478.146 175.176 477.87 175.039 477.506 175.039C477.346 175.039 477.185 175.069 477.021 175.128C476.861 175.183 476.695 175.274 476.521 175.401C476.353 175.524 476.173 175.684 475.981 175.88C475.79 176.076 475.585 176.313 475.366 176.591V181H474.163V174.137ZM487.11 180.904C486.841 180.973 486.563 181.021 486.276 181.048C485.989 181.08 485.698 181.096 485.401 181.096C484.54 181.096 483.897 180.902 483.474 180.515C483.05 180.123 482.838 179.523 482.838 178.717V175.135H480.917V174.137H482.838V172.25L484.027 171.942V174.137H487.11V175.135H484.027V178.621C484.027 179.113 484.157 179.482 484.417 179.729C484.681 179.97 485.069 180.091 485.579 180.091C485.798 180.091 486.037 180.075 486.297 180.043C486.557 180.007 486.828 179.952 487.11 179.879V180.904ZM503.065 181H501.691L500.358 178.143C500.258 177.924 500.156 177.744 500.051 177.603C499.946 177.457 499.832 177.343 499.709 177.261C499.59 177.174 499.458 177.113 499.312 177.076C499.171 177.04 499.012 177.021 498.834 177.021H498.26V181H497.043V172.065H499.436C499.955 172.065 500.402 172.122 500.775 172.236C501.149 172.35 501.454 172.51 501.691 172.715C501.933 172.92 502.108 173.168 502.218 173.46C502.332 173.747 502.389 174.066 502.389 174.417C502.389 174.695 502.348 174.959 502.266 175.21C502.184 175.456 502.061 175.682 501.896 175.887C501.737 176.087 501.536 176.263 501.295 176.413C501.058 176.559 500.785 176.668 500.475 176.741C500.725 176.828 500.937 176.98 501.11 177.199C501.288 177.413 501.468 177.701 501.65 178.061L503.065 181ZM501.117 174.52C501.117 174.041 500.967 173.683 500.666 173.446C500.37 173.209 499.951 173.091 499.408 173.091H498.26V176.044H499.244C499.531 176.044 499.789 176.012 500.017 175.948C500.249 175.88 500.445 175.782 500.604 175.654C500.769 175.522 500.894 175.363 500.98 175.176C501.072 174.984 501.117 174.766 501.117 174.52ZM510.469 177.206C510.469 177.375 510.466 177.516 510.462 177.63C510.457 177.744 510.451 177.851 510.441 177.951H505.622C505.622 178.653 505.818 179.193 506.21 179.571C506.602 179.945 507.167 180.132 507.905 180.132C508.106 180.132 508.306 180.125 508.507 180.111C508.707 180.093 508.901 180.07 509.088 180.043C509.275 180.016 509.452 179.986 509.621 179.954C509.794 179.918 509.954 179.879 510.1 179.838V180.815C509.776 180.907 509.409 180.979 508.999 181.034C508.593 181.093 508.172 181.123 507.734 181.123C507.146 181.123 506.641 181.043 506.217 180.884C505.793 180.724 505.444 180.494 505.171 180.193C504.902 179.888 504.701 179.517 504.569 179.079C504.442 178.637 504.378 178.138 504.378 177.582C504.378 177.099 504.446 176.643 504.583 176.215C504.724 175.782 504.927 175.404 505.191 175.08C505.46 174.752 505.788 174.492 506.176 174.301C506.563 174.109 507.003 174.014 507.495 174.014C507.974 174.014 508.397 174.089 508.767 174.239C509.136 174.39 509.446 174.604 509.696 174.882C509.951 175.155 510.143 175.49 510.271 175.887C510.403 176.279 510.469 176.718 510.469 177.206ZM509.231 177.035C509.245 176.73 509.215 176.452 509.143 176.201C509.07 175.946 508.956 175.727 508.801 175.545C508.65 175.363 508.461 175.221 508.233 175.121C508.006 175.016 507.741 174.964 507.44 174.964C507.181 174.964 506.944 175.014 506.729 175.114C506.515 175.215 506.331 175.356 506.176 175.538C506.021 175.72 505.896 175.939 505.8 176.194C505.704 176.45 505.645 176.73 505.622 177.035H509.231ZM516.778 181L516.751 180.077C516.377 180.446 515.997 180.713 515.609 180.877C515.227 181.041 514.823 181.123 514.399 181.123C514.007 181.123 513.673 181.073 513.395 180.973C513.117 180.872 512.886 180.736 512.704 180.562C512.526 180.385 512.394 180.177 512.308 179.94C512.226 179.703 512.185 179.446 512.185 179.168C512.185 178.48 512.44 177.942 512.95 177.555C513.465 177.163 514.224 176.967 515.227 176.967H516.648V176.365C516.648 175.96 516.519 175.636 516.259 175.395C515.999 175.148 515.603 175.025 515.069 175.025C514.682 175.025 514.299 175.069 513.921 175.155C513.547 175.242 513.16 175.365 512.759 175.524V174.451C512.909 174.396 513.076 174.344 513.258 174.294C513.445 174.239 513.641 174.191 513.846 174.15C514.051 174.109 514.265 174.077 514.488 174.055C514.712 174.027 514.937 174.014 515.165 174.014C515.58 174.014 515.953 174.059 516.286 174.15C516.619 174.242 516.899 174.381 517.127 174.567C517.359 174.754 517.537 174.989 517.66 175.271C517.783 175.554 517.845 175.887 517.845 176.27V181H516.778ZM516.648 177.876H515.138C514.841 177.876 514.586 177.906 514.372 177.965C514.158 178.024 513.982 178.108 513.846 178.218C513.709 178.327 513.606 178.459 513.538 178.614C513.474 178.765 513.442 178.936 513.442 179.127C513.442 179.259 513.463 179.387 513.504 179.51C513.545 179.628 513.611 179.735 513.702 179.831C513.793 179.922 513.912 179.995 514.058 180.05C514.203 180.104 514.381 180.132 514.591 180.132C514.864 180.132 515.176 180.05 515.527 179.886C515.883 179.717 516.257 179.453 516.648 179.093V177.876ZM525.398 180.747C525.089 180.866 524.77 180.952 524.441 181.007C524.118 181.066 523.783 181.096 523.437 181.096C522.352 181.096 521.516 180.802 520.928 180.214C520.344 179.626 520.053 178.767 520.053 177.637C520.053 177.094 520.137 176.602 520.306 176.16C520.474 175.718 520.711 175.34 521.017 175.025C521.322 174.711 521.687 174.469 522.11 174.301C522.534 174.128 523.001 174.041 523.512 174.041C523.867 174.041 524.2 174.066 524.51 174.116C524.82 174.166 525.116 174.248 525.398 174.362V175.497C525.102 175.342 524.799 175.23 524.489 175.162C524.184 175.089 523.867 175.053 523.539 175.053C523.234 175.053 522.944 175.112 522.671 175.23C522.402 175.344 522.165 175.511 521.96 175.729C521.755 175.948 521.593 176.215 521.475 176.529C521.356 176.844 521.297 177.199 521.297 177.596C521.297 178.425 521.497 179.047 521.898 179.462C522.304 179.872 522.865 180.077 523.58 180.077C523.904 180.077 524.216 180.041 524.517 179.968C524.822 179.895 525.116 179.785 525.398 179.64V180.747ZM533.294 180.904C533.025 180.973 532.747 181.021 532.46 181.048C532.173 181.08 531.881 181.096 531.585 181.096C530.724 181.096 530.081 180.902 529.657 180.515C529.233 180.123 529.021 179.523 529.021 178.717V175.135H527.101V174.137H529.021V172.25L530.211 171.942V174.137H533.294V175.135H530.211V178.621C530.211 179.113 530.341 179.482 530.601 179.729C530.865 179.97 531.252 180.091 531.763 180.091C531.981 180.091 532.221 180.075 532.48 180.043C532.74 180.007 533.011 179.952 533.294 179.879V180.904ZM549.249 172.448C548.625 172.316 548.087 172.25 547.636 172.25C546.565 172.25 546.029 172.811 546.029 173.932V175.135H549.037V176.126H546.029V181H544.819V176.126H542.611V175.135H544.819V174C544.819 172.173 545.772 171.259 547.677 171.259C548.151 171.259 548.675 171.313 549.249 171.423V172.448ZM551.136 174.137H552.223L552.257 175.401C552.662 174.914 553.061 174.561 553.453 174.342C553.85 174.123 554.248 174.014 554.649 174.014C555.36 174.014 555.898 174.244 556.263 174.704C556.632 175.164 556.803 175.848 556.775 176.755H555.572C555.586 176.153 555.497 175.718 555.306 175.449C555.119 175.176 554.843 175.039 554.479 175.039C554.319 175.039 554.157 175.069 553.993 175.128C553.834 175.183 553.667 175.274 553.494 175.401C553.326 175.524 553.146 175.684 552.954 175.88C552.763 176.076 552.558 176.313 552.339 176.591V181H551.136V174.137ZM564.527 177.514C564.527 178.047 564.452 178.537 564.302 178.983C564.151 179.425 563.935 179.806 563.652 180.125C563.37 180.439 563.026 180.686 562.62 180.863C562.215 181.036 561.754 181.123 561.239 181.123C560.747 181.123 560.305 181.048 559.913 180.897C559.526 180.743 559.195 180.517 558.922 180.221C558.653 179.924 558.446 179.558 558.3 179.12C558.159 178.683 558.088 178.179 558.088 177.609C558.088 177.076 558.163 176.591 558.313 176.153C558.464 175.711 558.68 175.333 558.963 175.019C559.245 174.7 559.59 174.453 559.995 174.28C560.401 174.103 560.861 174.014 561.376 174.014C561.868 174.014 562.308 174.091 562.695 174.246C563.087 174.396 563.418 174.62 563.687 174.916C563.96 175.208 564.167 175.572 564.309 176.01C564.454 176.447 564.527 176.949 564.527 177.514ZM563.311 177.568C563.311 177.145 563.263 176.775 563.167 176.461C563.076 176.142 562.944 175.878 562.771 175.668C562.597 175.454 562.385 175.294 562.135 175.189C561.889 175.08 561.613 175.025 561.308 175.025C560.952 175.025 560.647 175.096 560.392 175.237C560.141 175.374 559.934 175.559 559.77 175.791C559.61 176.023 559.492 176.295 559.414 176.604C559.341 176.91 559.305 177.231 559.305 177.568C559.305 177.992 559.35 178.364 559.441 178.683C559.537 179.002 559.672 179.268 559.845 179.482C560.018 179.692 560.228 179.852 560.474 179.961C560.72 180.066 560.998 180.118 561.308 180.118C561.663 180.118 561.966 180.05 562.217 179.913C562.472 179.772 562.679 179.585 562.839 179.353C563.003 179.12 563.121 178.851 563.194 178.546C563.272 178.236 563.311 177.91 563.311 177.568ZM571.145 181V176.071C571.145 175.857 571.135 175.682 571.117 175.545C571.104 175.408 571.078 175.301 571.042 175.224C571.01 175.142 570.967 175.085 570.912 175.053C570.862 175.021 570.798 175.005 570.721 175.005C570.63 175.005 570.545 175.032 570.468 175.087C570.39 175.142 570.306 175.23 570.215 175.354C570.128 175.477 570.03 175.641 569.921 175.846C569.816 176.046 569.691 176.295 569.545 176.591V181H568.458V176.201C568.458 175.951 568.449 175.748 568.431 175.593C568.417 175.438 568.392 175.317 568.355 175.23C568.324 175.144 568.28 175.085 568.226 175.053C568.171 175.021 568.105 175.005 568.027 175.005C567.945 175.005 567.868 175.028 567.795 175.073C567.722 175.119 567.64 175.201 567.549 175.319C567.462 175.438 567.364 175.6 567.255 175.805C567.146 176.01 567.016 176.272 566.865 176.591V181H565.771V174.137H566.681L566.735 175.442C566.854 175.183 566.968 174.962 567.077 174.779C567.191 174.597 567.307 174.451 567.426 174.342C567.544 174.228 567.67 174.146 567.802 174.096C567.938 174.041 568.089 174.014 568.253 174.014C568.622 174.014 568.902 174.134 569.094 174.376C569.285 174.618 569.381 174.991 569.381 175.497C569.49 175.26 569.597 175.05 569.702 174.868C569.807 174.681 569.919 174.526 570.037 174.403C570.16 174.276 570.295 174.18 570.44 174.116C570.586 174.048 570.755 174.014 570.946 174.014C571.808 174.014 572.238 174.677 572.238 176.003V181H571.145ZM585.186 171.341L584.987 174.547H583.812L583.62 171.341H585.186ZM589.622 174.137H590.709L590.743 175.401C591.149 174.914 591.548 174.561 591.939 174.342C592.336 174.123 592.735 174.014 593.136 174.014C593.847 174.014 594.384 174.244 594.749 174.704C595.118 175.164 595.289 175.848 595.262 176.755H594.059C594.072 176.153 593.983 175.718 593.792 175.449C593.605 175.176 593.329 175.039 592.965 175.039C592.805 175.039 592.644 175.069 592.479 175.128C592.32 175.183 592.154 175.274 591.98 175.401C591.812 175.524 591.632 175.684 591.44 175.88C591.249 176.076 591.044 176.313 590.825 176.591V181H589.622V174.137ZM602.836 177.206C602.836 177.375 602.834 177.516 602.829 177.63C602.825 177.744 602.818 177.851 602.809 177.951H597.989C597.989 178.653 598.185 179.193 598.577 179.571C598.969 179.945 599.534 180.132 600.272 180.132C600.473 180.132 600.674 180.125 600.874 180.111C601.075 180.093 601.268 180.07 601.455 180.043C601.642 180.016 601.82 179.986 601.988 179.954C602.161 179.918 602.321 179.879 602.467 179.838V180.815C602.143 180.907 601.776 180.979 601.366 181.034C600.961 181.093 600.539 181.123 600.102 181.123C599.514 181.123 599.008 181.043 598.584 180.884C598.16 180.724 597.812 180.494 597.538 180.193C597.269 179.888 597.069 179.517 596.937 179.079C596.809 178.637 596.745 178.138 596.745 177.582C596.745 177.099 596.813 176.643 596.95 176.215C597.091 175.782 597.294 175.404 597.559 175.08C597.827 174.752 598.156 174.492 598.543 174.301C598.93 174.109 599.37 174.014 599.862 174.014C600.341 174.014 600.765 174.089 601.134 174.239C601.503 174.39 601.813 174.604 602.063 174.882C602.319 175.155 602.51 175.49 602.638 175.887C602.77 176.279 602.836 176.718 602.836 177.206ZM601.599 177.035C601.612 176.73 601.583 176.452 601.51 176.201C601.437 175.946 601.323 175.727 601.168 175.545C601.018 175.363 600.828 175.221 600.601 175.121C600.373 175.016 600.108 174.964 599.808 174.964C599.548 174.964 599.311 175.014 599.097 175.114C598.882 175.215 598.698 175.356 598.543 175.538C598.388 175.72 598.263 175.939 598.167 176.194C598.071 176.45 598.012 176.73 597.989 177.035H601.599ZM609.146 181L609.118 180.077C608.744 180.446 608.364 180.713 607.977 180.877C607.594 181.041 607.19 181.123 606.767 181.123C606.375 181.123 606.04 181.073 605.762 180.973C605.484 180.872 605.254 180.736 605.071 180.562C604.894 180.385 604.761 180.177 604.675 179.94C604.593 179.703 604.552 179.446 604.552 179.168C604.552 178.48 604.807 177.942 605.317 177.555C605.832 177.163 606.591 176.967 607.594 176.967H609.016V176.365C609.016 175.96 608.886 175.636 608.626 175.395C608.366 175.148 607.97 175.025 607.437 175.025C607.049 175.025 606.666 175.069 606.288 175.155C605.914 175.242 605.527 175.365 605.126 175.524V174.451C605.276 174.396 605.443 174.344 605.625 174.294C605.812 174.239 606.008 174.191 606.213 174.15C606.418 174.109 606.632 174.077 606.855 174.055C607.079 174.027 607.304 174.014 607.532 174.014C607.947 174.014 608.321 174.059 608.653 174.15C608.986 174.242 609.266 174.381 609.494 174.567C609.727 174.754 609.904 174.989 610.027 175.271C610.15 175.554 610.212 175.887 610.212 176.27V181H609.146ZM609.016 177.876H607.505C607.209 177.876 606.953 177.906 606.739 177.965C606.525 178.024 606.35 178.108 606.213 178.218C606.076 178.327 605.974 178.459 605.905 178.614C605.841 178.765 605.81 178.936 605.81 179.127C605.81 179.259 605.83 179.387 605.871 179.51C605.912 179.628 605.978 179.735 606.069 179.831C606.16 179.922 606.279 179.995 606.425 180.05C606.571 180.104 606.748 180.132 606.958 180.132C607.231 180.132 607.544 180.05 607.895 179.886C608.25 179.717 608.624 179.453 609.016 179.093V177.876ZM617.766 180.747C617.456 180.866 617.137 180.952 616.809 181.007C616.485 181.066 616.15 181.096 615.804 181.096C614.719 181.096 613.883 180.802 613.295 180.214C612.712 179.626 612.42 178.767 612.42 177.637C612.42 177.094 612.504 176.602 612.673 176.16C612.841 175.718 613.078 175.34 613.384 175.025C613.689 174.711 614.054 174.469 614.478 174.301C614.901 174.128 615.368 174.041 615.879 174.041C616.234 174.041 616.567 174.066 616.877 174.116C617.187 174.166 617.483 174.248 617.766 174.362V175.497C617.469 175.342 617.166 175.23 616.856 175.162C616.551 175.089 616.234 175.053 615.906 175.053C615.601 175.053 615.312 175.112 615.038 175.23C614.769 175.344 614.532 175.511 614.327 175.729C614.122 175.948 613.96 176.215 613.842 176.529C613.723 176.844 613.664 177.199 613.664 177.596C613.664 178.425 613.865 179.047 614.266 179.462C614.671 179.872 615.232 180.077 615.947 180.077C616.271 180.077 616.583 180.041 616.884 179.968C617.189 179.895 617.483 179.785 617.766 179.64V180.747ZM625.661 180.904C625.392 180.973 625.114 181.021 624.827 181.048C624.54 181.08 624.248 181.096 623.952 181.096C623.091 181.096 622.448 180.902 622.024 180.515C621.601 180.123 621.389 179.523 621.389 178.717V175.135H619.468V174.137H621.389V172.25L622.578 171.942V174.137H625.661V175.135H622.578V178.621C622.578 179.113 622.708 179.482 622.968 179.729C623.232 179.97 623.619 180.091 624.13 180.091C624.349 180.091 624.588 180.075 624.848 180.043C625.107 180.007 625.379 179.952 625.661 179.879V180.904ZM631.369 171.341L631.171 174.547H629.995L629.804 171.341H631.369ZM449.185 204.448C448.56 204.316 448.022 204.25 447.571 204.25C446.5 204.25 445.965 204.811 445.965 205.932V207.135H448.973V208.126H445.965V213H444.755V208.126H442.547V207.135H444.755V206C444.755 204.173 445.707 203.259 447.612 203.259C448.086 203.259 448.61 203.313 449.185 203.423V204.448ZM456.308 213H455.241L455.2 211.893C454.995 212.13 454.799 212.328 454.612 212.487C454.43 212.642 454.248 212.768 454.065 212.863C453.883 212.959 453.699 213.025 453.512 213.062C453.329 213.103 453.136 213.123 452.931 213.123C452.224 213.123 451.691 212.916 451.331 212.501C450.971 212.086 450.791 211.46 450.791 210.621V206.137H451.98V210.525C451.98 211.578 452.377 212.104 453.17 212.104C453.316 212.104 453.457 212.084 453.594 212.043C453.735 211.997 453.881 211.922 454.031 211.817C454.186 211.708 454.35 211.562 454.523 211.38C454.701 211.198 454.899 210.967 455.118 210.689V206.137H456.308V213ZM458.488 206.137H459.548L459.596 207.244C459.796 207.007 459.99 206.811 460.177 206.656C460.364 206.497 460.546 206.369 460.724 206.273C460.906 206.178 461.09 206.112 461.277 206.075C461.464 206.034 461.658 206.014 461.858 206.014C462.565 206.014 463.098 206.223 463.458 206.643C463.823 207.057 464.005 207.684 464.005 208.522V213H462.815V208.618C462.815 208.08 462.715 207.684 462.515 207.429C462.314 207.169 462.016 207.039 461.619 207.039C461.473 207.039 461.33 207.062 461.188 207.107C461.052 207.148 460.908 207.224 460.758 207.333C460.607 207.438 460.443 207.581 460.266 207.764C460.092 207.946 459.896 208.174 459.678 208.447V213H458.488V206.137ZM471.518 212.747C471.208 212.866 470.889 212.952 470.561 213.007C470.237 213.066 469.902 213.096 469.556 213.096C468.471 213.096 467.635 212.802 467.047 212.214C466.464 211.626 466.172 210.767 466.172 209.637C466.172 209.094 466.256 208.602 466.425 208.16C466.593 207.718 466.83 207.34 467.136 207.025C467.441 206.711 467.806 206.469 468.229 206.301C468.653 206.128 469.12 206.041 469.631 206.041C469.986 206.041 470.319 206.066 470.629 206.116C470.939 206.166 471.235 206.248 471.518 206.362V207.497C471.221 207.342 470.918 207.23 470.608 207.162C470.303 207.089 469.986 207.053 469.658 207.053C469.353 207.053 469.063 207.112 468.79 207.23C468.521 207.344 468.284 207.511 468.079 207.729C467.874 207.948 467.712 208.215 467.594 208.529C467.475 208.844 467.416 209.199 467.416 209.596C467.416 210.425 467.617 211.047 468.018 211.462C468.423 211.872 468.984 212.077 469.699 212.077C470.023 212.077 470.335 212.041 470.636 211.968C470.941 211.895 471.235 211.785 471.518 211.64V212.747ZM479.413 212.904C479.144 212.973 478.866 213.021 478.579 213.048C478.292 213.08 478 213.096 477.704 213.096C476.843 213.096 476.2 212.902 475.776 212.515C475.353 212.123 475.141 211.523 475.141 210.717V207.135H473.22V206.137H475.141V204.25L476.33 203.942V206.137H479.413V207.135H476.33V210.621C476.33 211.113 476.46 211.482 476.72 211.729C476.984 211.97 477.371 212.091 477.882 212.091C478.101 212.091 478.34 212.075 478.6 212.043C478.859 212.007 479.131 211.952 479.413 211.879V212.904ZM483.918 207.121H481.888V206.137H485.121V212.009H487.165V213H481.662V212.009H483.918V207.121ZM484.335 203.259C484.467 203.259 484.59 203.284 484.704 203.334C484.818 203.38 484.916 203.446 484.998 203.532C485.085 203.619 485.151 203.719 485.196 203.833C485.246 203.942 485.271 204.063 485.271 204.195C485.271 204.323 485.246 204.444 485.196 204.558C485.151 204.672 485.085 204.772 484.998 204.858C484.916 204.945 484.818 205.013 484.704 205.063C484.59 205.109 484.467 205.132 484.335 205.132C484.203 205.132 484.08 205.109 483.966 205.063C483.852 205.013 483.752 204.945 483.665 204.858C483.583 204.772 483.517 204.672 483.467 204.558C483.421 204.444 483.398 204.323 483.398 204.195C483.398 204.063 483.421 203.942 483.467 203.833C483.517 203.719 483.583 203.619 483.665 203.532C483.752 203.446 483.852 203.38 483.966 203.334C484.08 203.284 484.203 203.259 484.335 203.259ZM495.252 209.514C495.252 210.047 495.177 210.537 495.026 210.983C494.876 211.425 494.66 211.806 494.377 212.125C494.094 212.439 493.75 212.686 493.345 212.863C492.939 213.036 492.479 213.123 491.964 213.123C491.472 213.123 491.03 213.048 490.638 212.897C490.25 212.743 489.92 212.517 489.646 212.221C489.378 211.924 489.17 211.558 489.024 211.12C488.883 210.683 488.812 210.179 488.812 209.609C488.812 209.076 488.888 208.591 489.038 208.153C489.188 207.711 489.405 207.333 489.688 207.019C489.97 206.7 490.314 206.453 490.72 206.28C491.125 206.103 491.586 206.014 492.101 206.014C492.593 206.014 493.033 206.091 493.42 206.246C493.812 206.396 494.142 206.62 494.411 206.916C494.685 207.208 494.892 207.572 495.033 208.01C495.179 208.447 495.252 208.949 495.252 209.514ZM494.035 209.568C494.035 209.145 493.987 208.775 493.892 208.461C493.8 208.142 493.668 207.878 493.495 207.668C493.322 207.454 493.11 207.294 492.859 207.189C492.613 207.08 492.338 207.025 492.032 207.025C491.677 207.025 491.371 207.096 491.116 207.237C490.866 207.374 490.658 207.559 490.494 207.791C490.335 208.023 490.216 208.295 490.139 208.604C490.066 208.91 490.029 209.231 490.029 209.568C490.029 209.992 490.075 210.364 490.166 210.683C490.262 211.002 490.396 211.268 490.569 211.482C490.743 211.692 490.952 211.852 491.198 211.961C491.444 212.066 491.722 212.118 492.032 212.118C492.388 212.118 492.691 212.05 492.941 211.913C493.197 211.772 493.404 211.585 493.563 211.353C493.728 211.12 493.846 210.851 493.919 210.546C493.996 210.236 494.035 209.91 494.035 209.568ZM496.975 206.137H498.034L498.082 207.244C498.283 207.007 498.476 206.811 498.663 206.656C498.85 206.497 499.032 206.369 499.21 206.273C499.392 206.178 499.577 206.112 499.764 206.075C499.951 206.034 500.144 206.014 500.345 206.014C501.051 206.014 501.584 206.223 501.944 206.643C502.309 207.057 502.491 207.684 502.491 208.522V213H501.302V208.618C501.302 208.08 501.201 207.684 501.001 207.429C500.8 207.169 500.502 207.039 500.105 207.039C499.96 207.039 499.816 207.062 499.675 207.107C499.538 207.148 499.395 207.224 499.244 207.333C499.094 207.438 498.93 207.581 498.752 207.764C498.579 207.946 498.383 208.174 498.164 208.447V213H496.975V206.137ZM518.077 212.665C517.362 212.961 516.612 213.109 515.828 213.109C514.566 213.109 513.595 212.733 512.916 211.981C512.242 211.225 511.904 210.108 511.904 208.632C511.904 207.916 511.998 207.269 512.185 206.69C512.371 206.112 512.638 205.622 512.984 205.221C513.331 204.815 513.75 204.503 514.242 204.284C514.734 204.065 515.286 203.956 515.896 203.956C516.311 203.956 516.696 203.993 517.052 204.065C517.407 204.134 517.749 204.241 518.077 204.387V205.583C517.754 205.405 517.419 205.271 517.072 205.18C516.726 205.084 516.348 205.036 515.938 205.036C515.518 205.036 515.138 205.116 514.796 205.275C514.459 205.43 514.172 205.658 513.935 205.959C513.698 206.255 513.515 206.62 513.388 207.053C513.26 207.481 513.196 207.971 513.196 208.522C513.196 209.68 513.431 210.553 513.9 211.141C514.37 211.729 515.058 212.022 515.965 212.022C516.348 212.022 516.715 211.979 517.065 211.893C517.416 211.801 517.754 211.676 518.077 211.517V212.665ZM526.041 209.514C526.041 210.047 525.966 210.537 525.815 210.983C525.665 211.425 525.449 211.806 525.166 212.125C524.883 212.439 524.539 212.686 524.134 212.863C523.728 213.036 523.268 213.123 522.753 213.123C522.261 213.123 521.819 213.048 521.427 212.897C521.039 212.743 520.709 212.517 520.436 212.221C520.167 211.924 519.959 211.558 519.813 211.12C519.672 210.683 519.602 210.179 519.602 209.609C519.602 209.076 519.677 208.591 519.827 208.153C519.978 207.711 520.194 207.333 520.477 207.019C520.759 206.7 521.103 206.453 521.509 206.28C521.914 206.103 522.375 206.014 522.89 206.014C523.382 206.014 523.822 206.091 524.209 206.246C524.601 206.396 524.931 206.62 525.2 206.916C525.474 207.208 525.681 207.572 525.822 208.01C525.968 208.447 526.041 208.949 526.041 209.514ZM524.824 209.568C524.824 209.145 524.776 208.775 524.681 208.461C524.59 208.142 524.457 207.878 524.284 207.668C524.111 207.454 523.899 207.294 523.648 207.189C523.402 207.08 523.127 207.025 522.821 207.025C522.466 207.025 522.16 207.096 521.905 207.237C521.655 207.374 521.447 207.559 521.283 207.791C521.124 208.023 521.005 208.295 520.928 208.604C520.855 208.91 520.818 209.231 520.818 209.568C520.818 209.992 520.864 210.364 520.955 210.683C521.051 211.002 521.185 211.268 521.358 211.482C521.532 211.692 521.741 211.852 521.987 211.961C522.233 212.066 522.511 212.118 522.821 212.118C523.177 212.118 523.48 212.05 523.73 211.913C523.986 211.772 524.193 211.585 524.353 211.353C524.517 211.12 524.635 210.851 524.708 210.546C524.785 210.236 524.824 209.91 524.824 209.568ZM527.764 206.137H528.823L528.871 207.244C529.072 207.007 529.265 206.811 529.452 206.656C529.639 206.497 529.821 206.369 529.999 206.273C530.181 206.178 530.366 206.112 530.553 206.075C530.74 206.034 530.933 206.014 531.134 206.014C531.84 206.014 532.373 206.223 532.733 206.643C533.098 207.057 533.28 207.684 533.28 208.522V213H532.091V208.618C532.091 208.08 531.991 207.684 531.79 207.429C531.59 207.169 531.291 207.039 530.895 207.039C530.749 207.039 530.605 207.062 530.464 207.107C530.327 207.148 530.184 207.224 530.033 207.333C529.883 207.438 529.719 207.581 529.541 207.764C529.368 207.946 529.172 208.174 528.953 208.447V213H527.764V206.137ZM540.991 212.904C540.722 212.973 540.444 213.021 540.157 213.048C539.87 213.08 539.578 213.096 539.282 213.096C538.421 213.096 537.778 212.902 537.354 212.515C536.931 212.123 536.719 211.523 536.719 210.717V207.135H534.798V206.137H536.719V204.25L537.908 203.942V206.137H540.991V207.135H537.908V210.621C537.908 211.113 538.038 211.482 538.298 211.729C538.562 211.97 538.95 212.091 539.46 212.091C539.679 212.091 539.918 212.075 540.178 212.043C540.438 212.007 540.709 211.952 540.991 211.879V212.904ZM547.567 213L547.54 212.077C547.166 212.446 546.786 212.713 546.398 212.877C546.016 213.041 545.612 213.123 545.188 213.123C544.797 213.123 544.462 213.073 544.184 212.973C543.906 212.872 543.675 212.736 543.493 212.562C543.315 212.385 543.183 212.177 543.097 211.94C543.015 211.703 542.974 211.446 542.974 211.168C542.974 210.48 543.229 209.942 543.739 209.555C544.254 209.163 545.013 208.967 546.016 208.967H547.438V208.365C547.438 207.96 547.308 207.636 547.048 207.395C546.788 207.148 546.392 207.025 545.858 207.025C545.471 207.025 545.088 207.069 544.71 207.155C544.336 207.242 543.949 207.365 543.548 207.524V206.451C543.698 206.396 543.865 206.344 544.047 206.294C544.234 206.239 544.43 206.191 544.635 206.15C544.84 206.109 545.054 206.077 545.277 206.055C545.501 206.027 545.726 206.014 545.954 206.014C546.369 206.014 546.743 206.059 547.075 206.15C547.408 206.242 547.688 206.381 547.916 206.567C548.148 206.754 548.326 206.989 548.449 207.271C548.572 207.554 548.634 207.887 548.634 208.27V213H547.567ZM547.438 209.876H545.927C545.631 209.876 545.375 209.906 545.161 209.965C544.947 210.024 544.771 210.108 544.635 210.218C544.498 210.327 544.396 210.459 544.327 210.614C544.263 210.765 544.231 210.936 544.231 211.127C544.231 211.259 544.252 211.387 544.293 211.51C544.334 211.628 544.4 211.735 544.491 211.831C544.582 211.922 544.701 211.995 544.847 212.05C544.993 212.104 545.17 212.132 545.38 212.132C545.653 212.132 545.965 212.05 546.316 211.886C546.672 211.717 547.046 211.453 547.438 211.093V209.876ZM556.188 212.747C555.878 212.866 555.559 212.952 555.23 213.007C554.907 213.066 554.572 213.096 554.226 213.096C553.141 213.096 552.305 212.802 551.717 212.214C551.133 211.626 550.842 210.767 550.842 209.637C550.842 209.094 550.926 208.602 551.095 208.16C551.263 207.718 551.5 207.34 551.806 207.025C552.111 206.711 552.476 206.469 552.899 206.301C553.323 206.128 553.79 206.041 554.301 206.041C554.656 206.041 554.989 206.066 555.299 206.116C555.609 206.166 555.905 206.248 556.188 206.362V207.497C555.891 207.342 555.588 207.23 555.278 207.162C554.973 207.089 554.656 207.053 554.328 207.053C554.023 207.053 553.733 207.112 553.46 207.23C553.191 207.344 552.954 207.511 552.749 207.729C552.544 207.948 552.382 208.215 552.264 208.529C552.145 208.844 552.086 209.199 552.086 209.596C552.086 210.425 552.286 211.047 552.688 211.462C553.093 211.872 553.654 212.077 554.369 212.077C554.693 212.077 555.005 212.041 555.306 211.968C555.611 211.895 555.905 211.785 556.188 211.64V212.747ZM564.083 212.904C563.814 212.973 563.536 213.021 563.249 213.048C562.962 213.08 562.67 213.096 562.374 213.096C561.513 213.096 560.87 212.902 560.446 212.515C560.022 212.123 559.811 211.523 559.811 210.717V207.135H557.89V206.137H559.811V204.25L561 203.942V206.137H564.083V207.135H561V210.621C561 211.113 561.13 211.482 561.39 211.729C561.654 211.97 562.041 212.091 562.552 212.091C562.771 212.091 563.01 212.075 563.27 212.043C563.529 212.007 563.8 211.952 564.083 211.879V212.904ZM570.358 215.871C568.257 213.925 567.207 211.774 567.207 209.418C567.207 208.867 567.262 208.317 567.371 207.771C567.485 207.219 567.665 206.668 567.911 206.116C568.162 205.565 568.49 205.013 568.896 204.462C569.306 203.91 569.802 203.364 570.386 202.821L571.076 203.525C569.308 205.271 568.424 207.205 568.424 209.329C568.424 210.386 568.647 211.403 569.094 212.378C569.54 213.353 570.201 214.274 571.076 215.14L570.358 215.871ZM575.349 202.821C577.45 204.767 578.5 206.932 578.5 209.315C578.5 209.808 578.45 210.318 578.35 210.847C578.249 211.375 578.078 211.918 577.837 212.474C577.595 213.025 577.27 213.586 576.859 214.155C576.454 214.725 575.941 215.297 575.321 215.871L574.631 215.167C575.52 214.287 576.183 213.369 576.62 212.412C577.058 211.455 577.276 210.452 577.276 209.404C577.276 207.235 576.395 205.285 574.631 203.553L575.349 202.821ZM594.38 215.803H593.874C592.994 215.803 592.34 215.595 591.912 215.181C591.484 214.771 591.27 214.146 591.27 213.308V210.956C591.27 210.733 591.244 210.535 591.194 210.361C591.144 210.184 591.055 210.035 590.928 209.917C590.805 209.794 590.638 209.701 590.429 209.637C590.224 209.573 589.964 209.541 589.649 209.541H589.355V208.591H589.649C589.982 208.591 590.253 208.563 590.463 208.509C590.673 208.454 590.837 208.372 590.955 208.263C591.074 208.149 591.156 208.005 591.201 207.832C591.247 207.659 591.27 207.454 591.27 207.217V205.597C591.27 205.214 591.315 204.87 591.406 204.564C591.497 204.255 591.646 203.993 591.851 203.778C592.06 203.56 592.329 203.393 592.657 203.279C592.99 203.161 593.396 203.102 593.874 203.102H594.38V204.059H593.977C592.919 204.059 592.391 204.571 592.391 205.597V207.189C592.391 208.301 591.91 208.928 590.948 209.069C591.919 209.165 592.404 209.789 592.404 210.942V213.28C592.404 214.324 592.928 214.846 593.977 214.846H594.38V215.803ZM474.163 222.137H475.25L475.284 223.401C475.69 222.914 476.089 222.561 476.48 222.342C476.877 222.123 477.276 222.014 477.677 222.014C478.388 222.014 478.925 222.244 479.29 222.704C479.659 223.164 479.83 223.848 479.803 224.755H478.6C478.613 224.153 478.524 223.718 478.333 223.449C478.146 223.176 477.87 223.039 477.506 223.039C477.346 223.039 477.185 223.069 477.021 223.128C476.861 223.183 476.695 223.274 476.521 223.401C476.353 223.524 476.173 223.684 475.981 223.88C475.79 224.076 475.585 224.313 475.366 224.591V229H474.163V222.137ZM487.377 225.206C487.377 225.375 487.375 225.516 487.37 225.63C487.366 225.744 487.359 225.851 487.35 225.951H482.53C482.53 226.653 482.726 227.193 483.118 227.571C483.51 227.945 484.075 228.132 484.813 228.132C485.014 228.132 485.215 228.125 485.415 228.111C485.616 228.093 485.809 228.07 485.996 228.043C486.183 228.016 486.361 227.986 486.529 227.954C486.702 227.918 486.862 227.879 487.008 227.838V228.815C486.684 228.907 486.317 228.979 485.907 229.034C485.502 229.093 485.08 229.123 484.643 229.123C484.055 229.123 483.549 229.043 483.125 228.884C482.701 228.724 482.353 228.494 482.079 228.193C481.81 227.888 481.61 227.517 481.478 227.079C481.35 226.637 481.286 226.138 481.286 225.582C481.286 225.099 481.354 224.643 481.491 224.215C481.632 223.782 481.835 223.404 482.1 223.08C482.368 222.752 482.697 222.492 483.084 222.301C483.471 222.109 483.911 222.014 484.403 222.014C484.882 222.014 485.306 222.089 485.675 222.239C486.044 222.39 486.354 222.604 486.604 222.882C486.86 223.155 487.051 223.49 487.179 223.887C487.311 224.279 487.377 224.718 487.377 225.206ZM486.14 225.035C486.153 224.73 486.124 224.452 486.051 224.201C485.978 223.946 485.864 223.727 485.709 223.545C485.559 223.363 485.369 223.221 485.142 223.121C484.914 223.016 484.649 222.964 484.349 222.964C484.089 222.964 483.852 223.014 483.638 223.114C483.424 223.215 483.239 223.356 483.084 223.538C482.929 223.72 482.804 223.939 482.708 224.194C482.612 224.45 482.553 224.73 482.53 225.035H486.14ZM494.808 228.904C494.539 228.973 494.261 229.021 493.974 229.048C493.687 229.08 493.395 229.096 493.099 229.096C492.237 229.096 491.595 228.902 491.171 228.515C490.747 228.123 490.535 227.523 490.535 226.717V223.135H488.614V222.137H490.535V220.25L491.725 219.942V222.137H494.808V223.135H491.725V226.621C491.725 227.113 491.854 227.482 492.114 227.729C492.379 227.97 492.766 228.091 493.276 228.091C493.495 228.091 493.734 228.075 493.994 228.043C494.254 228.007 494.525 227.952 494.808 227.879V228.904ZM502.491 229H501.425L501.384 227.893C501.179 228.13 500.983 228.328 500.796 228.487C500.614 228.642 500.431 228.768 500.249 228.863C500.067 228.959 499.882 229.025 499.695 229.062C499.513 229.103 499.319 229.123 499.114 229.123C498.408 229.123 497.875 228.916 497.515 228.501C497.155 228.086 496.975 227.46 496.975 226.621V222.137H498.164V226.525C498.164 227.578 498.561 228.104 499.354 228.104C499.499 228.104 499.641 228.084 499.777 228.043C499.919 227.997 500.064 227.922 500.215 227.817C500.37 227.708 500.534 227.562 500.707 227.38C500.885 227.198 501.083 226.967 501.302 226.689V222.137H502.491V229ZM504.952 222.137H506.039L506.073 223.401C506.479 222.914 506.878 222.561 507.27 222.342C507.666 222.123 508.065 222.014 508.466 222.014C509.177 222.014 509.715 222.244 510.079 222.704C510.448 223.164 510.619 223.848 510.592 224.755H509.389C509.402 224.153 509.313 223.718 509.122 223.449C508.935 223.176 508.66 223.039 508.295 223.039C508.135 223.039 507.974 223.069 507.81 223.128C507.65 223.183 507.484 223.274 507.311 223.401C507.142 223.524 506.962 223.684 506.771 223.88C506.579 224.076 506.374 224.313 506.155 224.591V229H504.952V222.137ZM512.369 222.137H513.429L513.477 223.244C513.677 223.007 513.871 222.811 514.058 222.656C514.244 222.497 514.427 222.369 514.604 222.273C514.787 222.178 514.971 222.112 515.158 222.075C515.345 222.034 515.539 222.014 515.739 222.014C516.446 222.014 516.979 222.223 517.339 222.643C517.703 223.057 517.886 223.684 517.886 224.522V229H516.696V224.618C516.696 224.08 516.596 223.684 516.396 223.429C516.195 223.169 515.896 223.039 515.5 223.039C515.354 223.039 515.211 223.062 515.069 223.107C514.933 223.148 514.789 223.224 514.639 223.333C514.488 223.438 514.324 223.581 514.146 223.764C513.973 223.946 513.777 224.174 513.559 224.447V229H512.369V222.137ZM531.872 231.871C529.771 229.925 528.721 227.774 528.721 225.418C528.721 224.867 528.775 224.317 528.885 223.771C528.999 223.219 529.179 222.668 529.425 222.116C529.675 221.565 530.004 221.013 530.409 220.462C530.819 219.91 531.316 219.364 531.899 218.821L532.59 219.525C530.822 221.271 529.938 223.205 529.938 225.329C529.938 226.386 530.161 227.403 530.607 228.378C531.054 229.353 531.715 230.274 532.59 231.14L531.872 231.871ZM475.284 250.821C477.385 252.767 478.436 254.932 478.436 257.315C478.436 257.808 478.385 258.318 478.285 258.847C478.185 259.375 478.014 259.918 477.772 260.474C477.531 261.025 477.205 261.586 476.795 262.155C476.389 262.725 475.877 263.297 475.257 263.871L474.566 263.167C475.455 262.287 476.118 261.369 476.556 260.412C476.993 259.455 477.212 258.452 477.212 257.404C477.212 255.235 476.33 253.285 474.566 251.553L475.284 250.821ZM443.565 267.102H444.071C444.951 267.102 445.605 267.309 446.033 267.724C446.462 268.134 446.676 268.758 446.676 269.597V271.176C446.676 271.399 446.701 271.6 446.751 271.777C446.801 271.951 446.888 272.099 447.011 272.222C447.138 272.34 447.307 272.431 447.517 272.495C447.726 272.559 447.988 272.591 448.303 272.591H448.597V273.541H448.303C447.97 273.541 447.697 273.568 447.482 273.623C447.273 273.678 447.109 273.762 446.99 273.876C446.872 273.985 446.79 274.127 446.744 274.3C446.699 274.473 446.676 274.678 446.676 274.915V277.308C446.676 277.69 446.63 278.035 446.539 278.34C446.448 278.65 446.3 278.912 446.095 279.126C445.89 279.345 445.621 279.511 445.288 279.625C444.955 279.743 444.55 279.803 444.071 279.803H443.565V278.846H443.976C445.028 278.846 445.555 278.333 445.555 277.308V274.942C445.555 273.83 446.035 273.206 446.997 273.069C446.026 272.965 445.541 272.338 445.541 271.189V269.624C445.541 268.58 445.019 268.059 443.976 268.059H443.565V267.102ZM448.891 305.206C448.891 305.375 448.888 305.516 448.884 305.63C448.879 305.744 448.872 305.851 448.863 305.951H444.044C444.044 306.653 444.24 307.193 444.632 307.571C445.024 307.945 445.589 308.132 446.327 308.132C446.528 308.132 446.728 308.125 446.929 308.111C447.129 308.093 447.323 308.07 447.51 308.043C447.697 308.016 447.874 307.986 448.043 307.954C448.216 307.918 448.376 307.879 448.521 307.838V308.815C448.198 308.907 447.831 308.979 447.421 309.034C447.015 309.093 446.594 309.123 446.156 309.123C445.568 309.123 445.062 309.043 444.639 308.884C444.215 308.724 443.866 308.494 443.593 308.193C443.324 307.888 443.123 307.517 442.991 307.079C442.864 306.637 442.8 306.138 442.8 305.582C442.8 305.099 442.868 304.643 443.005 304.215C443.146 303.782 443.349 303.404 443.613 303.08C443.882 302.752 444.21 302.492 444.598 302.301C444.985 302.109 445.425 302.014 445.917 302.014C446.396 302.014 446.819 302.089 447.188 302.239C447.558 302.39 447.868 302.604 448.118 302.882C448.373 303.155 448.565 303.49 448.692 303.887C448.825 304.279 448.891 304.718 448.891 305.206ZM447.653 305.035C447.667 304.73 447.637 304.452 447.564 304.201C447.492 303.946 447.378 303.727 447.223 303.545C447.072 303.363 446.883 303.221 446.655 303.121C446.427 303.016 446.163 302.964 445.862 302.964C445.603 302.964 445.366 303.014 445.151 303.114C444.937 303.215 444.753 303.356 444.598 303.538C444.443 303.72 444.317 303.939 444.222 304.194C444.126 304.45 444.067 304.73 444.044 305.035H447.653ZM456.978 309H455.398L453.546 306.382L451.714 309H450.176L452.835 305.555L450.299 302.137H451.823L453.628 304.775L455.398 302.137H456.868L454.291 305.582L456.978 309ZM464.354 305.445C464.354 306.056 464.267 306.589 464.094 307.045C463.925 307.501 463.69 307.879 463.39 308.18C463.089 308.48 462.733 308.706 462.323 308.856C461.913 309.007 461.469 309.082 460.99 309.082C460.771 309.082 460.553 309.071 460.334 309.048C460.12 309.025 459.901 308.986 459.678 308.932V311.803H458.488V302.137H459.548L459.623 303.285C459.965 302.816 460.329 302.488 460.717 302.301C461.104 302.109 461.523 302.014 461.975 302.014C462.367 302.014 462.711 302.096 463.007 302.26C463.303 302.424 463.551 302.656 463.752 302.957C463.952 303.253 464.103 303.613 464.203 304.037C464.303 304.456 464.354 304.926 464.354 305.445ZM463.137 305.5C463.137 305.14 463.109 304.81 463.055 304.509C463.005 304.208 462.923 303.951 462.809 303.736C462.695 303.522 462.549 303.356 462.371 303.237C462.193 303.114 461.981 303.053 461.735 303.053C461.585 303.053 461.432 303.078 461.277 303.128C461.122 303.174 460.961 303.253 460.792 303.367C460.628 303.477 460.452 303.625 460.266 303.812C460.083 303.994 459.887 304.222 459.678 304.495V307.824C459.896 307.915 460.127 307.988 460.368 308.043C460.61 308.093 460.847 308.118 461.079 308.118C461.722 308.118 462.225 307.902 462.59 307.469C462.954 307.031 463.137 306.375 463.137 305.5ZM472.16 305.514C472.16 306.047 472.085 306.537 471.935 306.983C471.784 307.425 471.568 307.806 471.285 308.125C471.003 308.439 470.659 308.686 470.253 308.863C469.847 309.036 469.387 309.123 468.872 309.123C468.38 309.123 467.938 309.048 467.546 308.897C467.159 308.743 466.828 308.517 466.555 308.221C466.286 307.924 466.078 307.558 465.933 307.12C465.791 306.683 465.721 306.179 465.721 305.609C465.721 305.076 465.796 304.591 465.946 304.153C466.097 303.711 466.313 303.333 466.596 303.019C466.878 302.7 467.222 302.453 467.628 302.28C468.034 302.103 468.494 302.014 469.009 302.014C469.501 302.014 469.941 302.091 470.328 302.246C470.72 302.396 471.05 302.62 471.319 302.916C471.593 303.208 471.8 303.572 471.941 304.01C472.087 304.447 472.16 304.949 472.16 305.514ZM470.943 305.568C470.943 305.145 470.896 304.775 470.8 304.461C470.709 304.142 470.576 303.878 470.403 303.668C470.23 303.454 470.018 303.294 469.768 303.189C469.521 303.08 469.246 303.025 468.94 303.025C468.585 303.025 468.28 303.096 468.024 303.237C467.774 303.374 467.566 303.559 467.402 303.791C467.243 304.023 467.124 304.295 467.047 304.604C466.974 304.91 466.938 305.231 466.938 305.568C466.938 305.992 466.983 306.364 467.074 306.683C467.17 307.002 467.304 307.268 467.478 307.482C467.651 307.692 467.86 307.852 468.106 307.961C468.353 308.066 468.631 308.118 468.94 308.118C469.296 308.118 469.599 308.05 469.85 307.913C470.105 307.772 470.312 307.585 470.472 307.353C470.636 307.12 470.754 306.851 470.827 306.546C470.905 306.236 470.943 305.91 470.943 305.568ZM474.163 302.137H475.25L475.284 303.401C475.69 302.914 476.089 302.561 476.48 302.342C476.877 302.123 477.276 302.014 477.677 302.014C478.388 302.014 478.925 302.244 479.29 302.704C479.659 303.164 479.83 303.848 479.803 304.755H478.6C478.613 304.153 478.524 303.718 478.333 303.449C478.146 303.176 477.87 303.039 477.506 303.039C477.346 303.039 477.185 303.069 477.021 303.128C476.861 303.183 476.695 303.274 476.521 303.401C476.353 303.524 476.173 303.684 475.981 303.88C475.79 304.076 475.585 304.313 475.366 304.591V309H474.163V302.137ZM487.11 308.904C486.841 308.973 486.563 309.021 486.276 309.048C485.989 309.08 485.698 309.096 485.401 309.096C484.54 309.096 483.897 308.902 483.474 308.515C483.05 308.123 482.838 307.523 482.838 306.717V303.135H480.917V302.137H482.838V300.25L484.027 299.942V302.137H487.11V303.135H484.027V306.621C484.027 307.113 484.157 307.482 484.417 307.729C484.681 307.97 485.069 308.091 485.579 308.091C485.798 308.091 486.037 308.075 486.297 308.043C486.557 308.007 486.828 307.952 487.11 307.879V308.904ZM496.626 305.712C496.626 305.129 496.706 304.611 496.865 304.16C497.025 303.704 497.25 303.322 497.542 303.012C497.838 302.697 498.191 302.46 498.602 302.301C499.016 302.137 499.477 302.055 499.982 302.055C500.201 302.055 500.415 302.068 500.625 302.096C500.839 302.123 501.049 302.166 501.254 302.226V299.341H502.45V309H501.384L501.343 307.701C501.01 308.184 500.65 308.542 500.263 308.774C499.875 309.007 499.456 309.123 499.005 309.123C498.613 309.123 498.267 309.041 497.966 308.877C497.67 308.713 497.421 308.483 497.221 308.187C497.025 307.886 496.877 307.526 496.776 307.106C496.676 306.687 496.626 306.222 496.626 305.712ZM497.843 305.637C497.843 306.466 497.964 307.086 498.205 307.496C498.451 307.902 498.798 308.104 499.244 308.104C499.545 308.104 499.862 307.97 500.194 307.701C500.532 307.432 500.885 307.034 501.254 306.505V303.319C501.058 303.228 500.841 303.16 500.604 303.114C500.368 303.064 500.133 303.039 499.9 303.039C499.253 303.039 498.747 303.249 498.383 303.668C498.023 304.087 497.843 304.743 497.843 305.637ZM510.469 305.206C510.469 305.375 510.466 305.516 510.462 305.63C510.457 305.744 510.451 305.851 510.441 305.951H505.622C505.622 306.653 505.818 307.193 506.21 307.571C506.602 307.945 507.167 308.132 507.905 308.132C508.106 308.132 508.306 308.125 508.507 308.111C508.707 308.093 508.901 308.07 509.088 308.043C509.275 308.016 509.452 307.986 509.621 307.954C509.794 307.918 509.954 307.879 510.1 307.838V308.815C509.776 308.907 509.409 308.979 508.999 309.034C508.593 309.093 508.172 309.123 507.734 309.123C507.146 309.123 506.641 309.043 506.217 308.884C505.793 308.724 505.444 308.494 505.171 308.193C504.902 307.888 504.701 307.517 504.569 307.079C504.442 306.637 504.378 306.138 504.378 305.582C504.378 305.099 504.446 304.643 504.583 304.215C504.724 303.782 504.927 303.404 505.191 303.08C505.46 302.752 505.788 302.492 506.176 302.301C506.563 302.109 507.003 302.014 507.495 302.014C507.974 302.014 508.397 302.089 508.767 302.239C509.136 302.39 509.446 302.604 509.696 302.882C509.951 303.155 510.143 303.49 510.271 303.887C510.403 304.279 510.469 304.718 510.469 305.206ZM509.231 305.035C509.245 304.73 509.215 304.452 509.143 304.201C509.07 303.946 508.956 303.727 508.801 303.545C508.65 303.363 508.461 303.221 508.233 303.121C508.006 303.016 507.741 302.964 507.44 302.964C507.181 302.964 506.944 303.014 506.729 303.114C506.515 303.215 506.331 303.356 506.176 303.538C506.021 303.72 505.896 303.939 505.8 304.194C505.704 304.45 505.645 304.73 505.622 305.035H509.231ZM518.46 300.448C517.836 300.316 517.298 300.25 516.847 300.25C515.776 300.25 515.24 300.811 515.24 301.932V303.135H518.248V304.126H515.24V309H514.03V304.126H511.822V303.135H514.03V302C514.03 300.173 514.983 299.259 516.888 299.259C517.362 299.259 517.886 299.313 518.46 299.423V300.448ZM524.476 309L524.448 308.077C524.075 308.446 523.694 308.713 523.307 308.877C522.924 309.041 522.521 309.123 522.097 309.123C521.705 309.123 521.37 309.073 521.092 308.973C520.814 308.872 520.584 308.736 520.401 308.562C520.224 308.385 520.091 308.177 520.005 307.94C519.923 307.703 519.882 307.446 519.882 307.168C519.882 306.48 520.137 305.942 520.647 305.555C521.162 305.163 521.921 304.967 522.924 304.967H524.346V304.365C524.346 303.96 524.216 303.636 523.956 303.395C523.696 303.148 523.3 303.025 522.767 303.025C522.379 303.025 521.996 303.069 521.618 303.155C521.244 303.242 520.857 303.365 520.456 303.524V302.451C520.606 302.396 520.773 302.344 520.955 302.294C521.142 302.239 521.338 302.191 521.543 302.15C521.748 302.109 521.962 302.077 522.186 302.055C522.409 302.027 522.634 302.014 522.862 302.014C523.277 302.014 523.651 302.059 523.983 302.15C524.316 302.242 524.596 302.381 524.824 302.567C525.057 302.754 525.234 302.989 525.357 303.271C525.48 303.554 525.542 303.887 525.542 304.27V309H524.476ZM524.346 305.876H522.835C522.539 305.876 522.284 305.906 522.069 305.965C521.855 306.024 521.68 306.108 521.543 306.218C521.406 306.327 521.304 306.459 521.235 306.614C521.172 306.765 521.14 306.936 521.14 307.127C521.14 307.259 521.16 307.387 521.201 307.51C521.242 307.628 521.308 307.735 521.399 307.831C521.491 307.922 521.609 307.995 521.755 308.05C521.901 308.104 522.078 308.132 522.288 308.132C522.562 308.132 522.874 308.05 523.225 307.886C523.58 307.717 523.954 307.453 524.346 307.093V305.876ZM533.28 309H532.214L532.173 307.893C531.968 308.13 531.772 308.328 531.585 308.487C531.403 308.642 531.22 308.768 531.038 308.863C530.856 308.959 530.671 309.025 530.484 309.062C530.302 309.103 530.108 309.123 529.903 309.123C529.197 309.123 528.664 308.916 528.304 308.501C527.944 308.086 527.764 307.46 527.764 306.621V302.137H528.953V306.525C528.953 307.578 529.35 308.104 530.143 308.104C530.288 308.104 530.43 308.084 530.566 308.043C530.708 307.997 530.854 307.922 531.004 307.817C531.159 307.708 531.323 307.562 531.496 307.38C531.674 307.198 531.872 306.967 532.091 306.689V302.137H533.28V309ZM537.799 300.318H535.769V299.341H539.002V308.009H541.046V309H535.543V308.009H537.799V300.318ZM548.688 308.904C548.42 308.973 548.142 309.021 547.854 309.048C547.567 309.08 547.276 309.096 546.979 309.096C546.118 309.096 545.476 308.902 545.052 308.515C544.628 308.123 544.416 307.523 544.416 306.717V303.135H542.495V302.137H544.416V300.25L545.605 299.942V302.137H548.688V303.135H545.605V306.621C545.605 307.113 545.735 307.482 545.995 307.729C546.259 307.97 546.647 308.091 547.157 308.091C547.376 308.091 547.615 308.075 547.875 308.043C548.135 308.007 548.406 307.952 548.688 307.879V308.904ZM564.261 308.665C563.545 308.961 562.796 309.109 562.012 309.109C560.749 309.109 559.779 308.733 559.1 307.981C558.425 307.225 558.088 306.108 558.088 304.632C558.088 303.916 558.181 303.269 558.368 302.69C558.555 302.112 558.822 301.622 559.168 301.221C559.514 300.815 559.934 300.503 560.426 300.284C560.918 300.065 561.469 299.956 562.08 299.956C562.495 299.956 562.88 299.993 563.235 300.065C563.591 300.134 563.933 300.241 564.261 300.387V301.583C563.937 301.405 563.602 301.271 563.256 301.18C562.91 301.084 562.531 301.036 562.121 301.036C561.702 301.036 561.321 301.116 560.979 301.275C560.642 301.43 560.355 301.658 560.118 301.959C559.881 302.255 559.699 302.62 559.571 303.053C559.444 303.481 559.38 303.971 559.38 304.522C559.38 305.68 559.615 306.553 560.084 307.141C560.553 307.729 561.242 308.022 562.148 308.022C562.531 308.022 562.898 307.979 563.249 307.893C563.6 307.801 563.937 307.676 564.261 307.517V308.665ZM572.225 305.514C572.225 306.047 572.149 306.537 571.999 306.983C571.849 307.425 571.632 307.806 571.35 308.125C571.067 308.439 570.723 308.686 570.317 308.863C569.912 309.036 569.451 309.123 568.937 309.123C568.444 309.123 568.002 309.048 567.61 308.897C567.223 308.743 566.893 308.517 566.619 308.221C566.35 307.924 566.143 307.558 565.997 307.12C565.856 306.683 565.785 306.179 565.785 305.609C565.785 305.076 565.86 304.591 566.011 304.153C566.161 303.711 566.378 303.333 566.66 303.019C566.943 302.7 567.287 302.453 567.692 302.28C568.098 302.103 568.558 302.014 569.073 302.014C569.565 302.014 570.005 302.091 570.393 302.246C570.785 302.396 571.115 302.62 571.384 302.916C571.657 303.208 571.865 303.572 572.006 304.01C572.152 304.447 572.225 304.949 572.225 305.514ZM571.008 305.568C571.008 305.145 570.96 304.775 570.864 304.461C570.773 304.142 570.641 303.878 570.468 303.668C570.295 303.454 570.083 303.294 569.832 303.189C569.586 303.08 569.31 303.025 569.005 303.025C568.649 303.025 568.344 303.096 568.089 303.237C567.838 303.374 567.631 303.559 567.467 303.791C567.307 304.023 567.189 304.295 567.111 304.604C567.038 304.91 567.002 305.231 567.002 305.568C567.002 305.992 567.048 306.364 567.139 306.683C567.234 307.002 567.369 307.268 567.542 307.482C567.715 307.692 567.925 307.852 568.171 307.961C568.417 308.066 568.695 308.118 569.005 308.118C569.36 308.118 569.663 308.05 569.914 307.913C570.169 307.772 570.377 307.585 570.536 307.353C570.7 307.12 570.819 306.851 570.892 306.546C570.969 306.236 571.008 305.91 571.008 305.568ZM573.947 302.137H575.007L575.055 303.244C575.255 303.007 575.449 302.811 575.636 302.656C575.823 302.497 576.005 302.369 576.183 302.273C576.365 302.178 576.549 302.112 576.736 302.075C576.923 302.034 577.117 302.014 577.317 302.014C578.024 302.014 578.557 302.223 578.917 302.643C579.282 303.057 579.464 303.684 579.464 304.522V309H578.274V304.618C578.274 304.08 578.174 303.684 577.974 303.429C577.773 303.169 577.475 303.039 577.078 303.039C576.932 303.039 576.789 303.062 576.647 303.107C576.511 303.148 576.367 303.224 576.217 303.333C576.066 303.438 575.902 303.581 575.725 303.764C575.551 303.946 575.355 304.174 575.137 304.447V309H573.947V302.137ZM587.175 308.904C586.906 308.973 586.628 309.021 586.341 309.048C586.054 309.08 585.762 309.096 585.466 309.096C584.604 309.096 583.962 308.902 583.538 308.515C583.114 308.123 582.902 307.523 582.902 306.717V303.135H580.981V302.137H582.902V300.25L584.092 299.942V302.137H587.175V303.135H584.092V306.621C584.092 307.113 584.222 307.482 584.481 307.729C584.746 307.97 585.133 308.091 585.644 308.091C585.862 308.091 586.102 308.075 586.361 308.043C586.621 308.007 586.892 307.952 587.175 307.879V308.904ZM593.751 309L593.724 308.077C593.35 308.446 592.969 308.713 592.582 308.877C592.199 309.041 591.796 309.123 591.372 309.123C590.98 309.123 590.645 309.073 590.367 308.973C590.089 308.872 589.859 308.736 589.677 308.562C589.499 308.385 589.367 308.177 589.28 307.94C589.198 307.703 589.157 307.446 589.157 307.168C589.157 306.48 589.412 305.942 589.923 305.555C590.438 305.163 591.197 304.967 592.199 304.967H593.621V304.365C593.621 303.96 593.491 303.636 593.231 303.395C592.972 303.148 592.575 303.025 592.042 303.025C591.655 303.025 591.272 303.069 590.894 303.155C590.52 303.242 590.132 303.365 589.731 303.524V302.451C589.882 302.396 590.048 302.344 590.23 302.294C590.417 302.239 590.613 302.191 590.818 302.15C591.023 302.109 591.238 302.077 591.461 302.055C591.684 302.027 591.91 302.014 592.138 302.014C592.552 302.014 592.926 302.059 593.259 302.15C593.591 302.242 593.872 302.381 594.1 302.567C594.332 302.754 594.51 302.989 594.633 303.271C594.756 303.554 594.817 303.887 594.817 304.27V309H593.751ZM593.621 305.876H592.11C591.814 305.876 591.559 305.906 591.345 305.965C591.131 306.024 590.955 306.108 590.818 306.218C590.682 306.327 590.579 306.459 590.511 306.614C590.447 306.765 590.415 306.936 590.415 307.127C590.415 307.259 590.436 307.387 590.477 307.51C590.518 307.628 590.584 307.735 590.675 307.831C590.766 307.922 590.884 307.995 591.03 308.05C591.176 308.104 591.354 308.132 591.563 308.132C591.837 308.132 592.149 308.05 592.5 307.886C592.855 307.717 593.229 307.453 593.621 307.093V305.876ZM602.371 308.747C602.061 308.866 601.742 308.952 601.414 309.007C601.09 309.066 600.756 309.096 600.409 309.096C599.325 309.096 598.488 308.802 597.9 308.214C597.317 307.626 597.025 306.767 597.025 305.637C597.025 305.094 597.11 304.602 597.278 304.16C597.447 303.718 597.684 303.34 597.989 303.025C598.295 302.711 598.659 302.469 599.083 302.301C599.507 302.128 599.974 302.041 600.484 302.041C600.84 302.041 601.173 302.066 601.482 302.116C601.792 302.166 602.089 302.248 602.371 302.362V303.497C602.075 303.342 601.772 303.23 601.462 303.162C601.157 303.089 600.84 303.053 600.512 303.053C600.206 303.053 599.917 303.112 599.644 303.23C599.375 303.344 599.138 303.511 598.933 303.729C598.728 303.948 598.566 304.215 598.447 304.529C598.329 304.844 598.27 305.199 598.27 305.596C598.27 306.425 598.47 307.047 598.871 307.462C599.277 307.872 599.837 308.077 600.553 308.077C600.876 308.077 601.188 308.041 601.489 307.968C601.795 307.895 602.089 307.785 602.371 307.64V308.747ZM610.267 308.904C609.998 308.973 609.72 309.021 609.433 309.048C609.146 309.08 608.854 309.096 608.558 309.096C607.696 309.096 607.054 308.902 606.63 308.515C606.206 308.123 605.994 307.523 605.994 306.717V303.135H604.073V302.137H605.994V300.25L607.184 299.942V302.137H610.267V303.135H607.184V306.621C607.184 307.113 607.313 307.482 607.573 307.729C607.838 307.97 608.225 308.091 608.735 308.091C608.954 308.091 609.193 308.075 609.453 308.043C609.713 308.007 609.984 307.952 610.267 307.879V308.904Z" fill="#0C0092"/>
<path d="M490.256 256.544C490.256 256.544 430.873 227.355 430.873 225.342C430.873 223.329 424.834 210.245 420.808 210.245C416.782 210.245 382.561 199.174 363.438 215.278L361.425 228.362L287.951 276.674L308.081 350.147C308.081 350.147 321.165 364.238 317.139 374.303C313.113 384.368 320.159 435.699 320.159 435.699L478.178 430.667V362.225C478.178 362.225 483.21 346.121 486.23 341.089C489.249 336.057 486.23 320.959 486.23 320.959L510.386 290.764C510.386 290.764 507.366 262.583 490.256 256.544Z" fill="#D0CDE1"/>
<path opacity="0.1" d="M290.467 301.333L294.996 276.674C294.996 276.674 268.828 390.407 271.847 403.491C274.867 416.576 297.009 436.706 300.029 437.712C303.048 438.719 331.23 351.154 331.23 351.154L290.467 301.333Z" fill="black"/>
<path d="M305.061 273.654L287.951 276.673C287.951 276.673 261.782 390.407 264.802 403.491C267.821 416.576 289.964 436.706 292.983 437.712C296.003 438.719 324.185 351.154 324.185 351.154L305.061 273.654Z" fill="#D0CDE1"/>
<path opacity="0.1" d="M495.791 307.371L504.347 290.764C504.347 290.764 516.425 404.498 508.373 415.569C500.321 426.641 468.47 430.784 468.47 430.784L468.113 348.134L495.791 307.371Z" fill="black"/>
<path d="M497.301 277.68L510.386 290.764C510.386 290.764 522.463 404.498 514.412 415.569C506.36 426.641 474.509 430.784 474.509 430.784L474.152 348.134L497.301 277.68Z" fill="#D0CDE1"/>
<path d="M302.042 450.796C302.042 450.796 272.854 439.725 267.821 460.861C262.789 481.998 279.899 576.608 279.899 576.608C279.899 576.608 290.97 648.069 298.016 650.082C305.061 652.095 336.263 653.101 341.295 644.043C346.327 634.984 326.198 542.387 326.198 542.387L442.951 540.374C442.951 540.374 435.905 620.894 431.879 627.939C427.853 634.984 427.853 659.14 431.879 659.14C435.905 659.14 480.191 657.127 483.21 651.088C486.23 645.049 503.34 509.173 503.34 509.173C503.34 509.173 517.431 461.868 501.327 464.887C485.223 467.907 302.042 450.796 302.042 450.796Z" fill="#3F3D56"/>
<path d="M474.152 647.062C474.152 647.062 484.217 640.017 489.249 647.062C494.282 654.108 496.295 662.16 474.152 674.238C452.009 686.316 434.899 683.296 434.899 681.283V652.095L474.152 647.062Z" fill="#2F2E41"/>
<path d="M300.029 644.043C300.029 644.043 289.964 636.997 284.931 644.043C279.899 651.088 277.886 659.14 300.029 671.218C322.172 683.296 339.282 680.277 339.282 678.264V649.075L300.029 644.043Z" fill="#2F2E41"/>
<path d="M394.887 107.669C391.078 107.537 387.275 108.079 383.654 109.27C380.846 110.399 378.164 111.818 375.651 113.504L358.765 124.005C357.332 124.625 356.114 125.656 355.266 126.968C354.418 128.279 353.977 129.813 353.999 131.375L351.889 147.176C351.357 151.164 350.866 155.429 352.651 159.034C354.141 162.043 356.982 164.103 359.319 166.515C363.058 170.39 365.574 175.28 366.555 180.576C367.763 187.173 366.99 195.118 372.211 199.328C375.038 201.608 378.891 202.039 382.517 202.251C392.431 202.83 402.377 202.447 412.217 201.108C413.782 200.991 415.307 200.564 416.705 199.851C418.48 198.801 419.597 196.948 420.642 195.169C424.412 188.75 428.299 181.92 428.258 174.475C428.238 170.792 427.295 166.837 429.064 163.606C429.998 162.232 431.013 160.915 432.101 159.661C434.291 156.584 434.717 152.631 435.074 148.871C436.214 136.862 435.022 127.724 426.172 119.265C417.91 111.368 406.155 107.742 394.887 107.669Z" fill="#2F2E41"/>
<path d="M321.524 554.843L276.104 722.839L292.858 724.01L336.688 558.71L321.524 554.843Z" fill="#707070"/>
<path d="M424.391 547.026L459.003 741.032L472.965 740.056L446.339 539.879L424.391 547.026Z" fill="#707070"/>
<path d="M474 565.799L503.392 695.965H517.388L489.396 563L474 565.799Z" fill="#707070"/>
<path d="M363.552 573.704L346.762 675.993L357.875 677.358L378.833 575.58L363.552 573.704Z" fill="#707070"/>
<path d="M277.143 551.508C277.143 551.508 254.749 401.748 317.732 397.549C380.716 393.35 470.292 397.549 470.292 397.549C470.292 397.549 522.078 393.35 506.682 551.508C506.682 551.508 520.678 597.696 394.712 593.497C268.745 589.298 277.143 551.508 277.143 551.508Z" fill="#6C63FF"/>
<path d="M231 296.3H145V397.128H231V296.3Z" fill="#3F3D56"/>
<path d="M217.655 311.946H158.345V381.482H217.655V311.946Z" fill="#F2F2F2"/>
<path d="M181.898 368.885L187.921 358.453L193.944 368.885L214 368.885L187.921 323.714L161.843 368.885L181.898 368.885Z" fill="#4DBA87"/>
<path d="M181.505 368.776L187.709 358.451L193.549 368.986L203.172 369.154L188 341.784L171.882 368.608L181.505 368.776Z" fill="#435466"/>
</svg>
