<svg viewBox="0 0 836 602" fill="none" xmlns="http://www.w3.org/2000/svg">
<rect fill="none"/>
<g id="development">
<path id="Vector" d="M246.392 308.575H26.3057L42.5779 134.799H264.528L246.392 308.575Z" fill="#263238"/>
<path id="Vector_2" d="M50.5046 279.418C50.302 279.418 52.5842 253.254 55.582 221.043C58.5799 188.833 61.1727 162.669 61.3617 162.669C61.5508 162.669 59.2821 188.818 56.2842 221.043C53.2864 253.269 50.6936 279.433 50.5046 279.418Z" fill="#DDDDDD"/>
<path id="Vector_3" d="M90.5708 168.582C86.8997 168.967 83.2104 169.097 79.5246 168.971C75.8388 169.097 72.1495 168.967 68.4784 168.582C72.149 168.187 75.8388 168.057 79.5246 168.192C83.2104 168.057 86.9002 168.187 90.5708 168.582Z" fill="#DDDDDD"/>
<path id="Vector_4" d="M184.571 168.582C184.571 168.791 164.869 168.971 140.576 168.971C116.282 168.971 96.5664 168.791 96.5664 168.582C96.5664 168.372 116.269 168.192 140.576 168.192C164.883 168.192 184.571 168.357 184.571 168.582Z" fill="#DDDDDD"/>
<path id="Vector_5" d="M87.9645 230.323C84.2939 230.718 80.6041 230.848 76.9183 230.713C73.2325 230.848 69.5427 230.718 65.8721 230.323C69.5432 229.938 73.2325 229.808 76.9183 229.934C80.6041 229.808 84.2934 229.938 87.9645 230.323Z" fill="#DDDDDD"/>
<path id="Vector_6" d="M181.965 230.323C181.965 230.548 162.263 230.713 137.969 230.713C113.676 230.713 93.9602 230.548 93.9602 230.323C93.9602 230.099 113.662 229.934 137.969 229.934C162.276 229.934 181.965 230.114 181.965 230.323Z" fill="#DDDDDD"/>
<path id="Vector_7" d="M151.987 258.867C151.987 259.091 132.284 259.256 107.991 259.256C83.6973 259.256 63.9816 259.091 63.9816 258.867C63.9816 258.642 83.6838 258.478 107.991 258.478C132.298 258.478 151.987 258.582 151.987 258.867Z" fill="#DDDDDD"/>
<path id="Vector_8" d="M100.307 186.019C100.307 186.228 93.3526 186.408 84.7641 186.408C76.1756 186.408 69.2211 186.228 69.2211 186.019C69.2211 185.809 76.1891 185.615 84.7641 185.615C93.3391 185.615 100.307 185.794 100.307 186.019Z" fill="#DDDDDD"/>
<path id="Vector_9" d="M99.5237 211.569C99.5237 211.793 92.5557 211.958 83.9807 211.958C75.4058 211.958 68.4377 211.793 68.4377 211.569C68.4377 211.344 75.3923 211.18 83.9807 211.18C92.5692 211.18 99.5237 211.359 99.5237 211.569Z" fill="#DDDDDD"/>
<path id="Vector_10" d="M125.802 248.105C125.802 248.315 118.834 248.494 110.259 248.494C101.684 248.494 94.7164 248.315 94.7164 248.105C94.7164 247.896 101.671 247.716 110.259 247.716C118.848 247.716 125.802 247.881 125.802 248.105Z" fill="#DDDDDD"/>
<path id="Vector_11" d="M213.362 186.019C213.362 186.228 195.591 186.408 173.66 186.408C151.73 186.408 133.945 186.228 133.945 186.019C133.945 185.809 151.73 185.615 173.66 185.615C195.591 185.615 213.362 185.794 213.362 186.019Z" fill="#DDDDDD"/>
<path id="Vector_12" d="M188.879 213.051C188.879 213.275 171.108 213.44 149.178 213.44C127.247 213.44 109.476 213.275 109.476 213.051C109.476 212.826 127.247 212.661 149.178 212.661C171.108 212.661 188.879 212.841 188.879 213.051Z" fill="#DDDDDD"/>
<path id="Vector_13" d="M216.211 248.105C216.211 248.315 198.427 248.494 176.51 248.494C154.593 248.494 136.795 248.315 136.795 248.105C136.795 247.896 154.579 247.716 176.51 247.716C198.44 247.716 216.211 247.881 216.211 248.105Z" fill="#DDDDDD"/>
<path id="Vector_14" d="M143.709 279.418C143.709 279.627 125.924 279.807 103.994 279.807C82.0632 279.807 64.2921 279.627 64.2921 279.418C64.2921 279.208 82.0632 279.028 103.994 279.028C125.924 279.028 143.709 279.193 143.709 279.418Z" fill="#DDDDDD"/>
<path id="Vector_15" d="M231.525 279.418C231.525 279.627 213.74 279.807 191.823 279.807C169.906 279.807 152.108 279.627 152.108 279.418C152.108 279.208 169.879 279.028 191.823 279.028C213.767 279.028 231.525 279.193 231.525 279.418Z" fill="#DDDDDD"/>
<path id="Vector_16" d="M143.695 289.596C143.695 289.82 125.924 289.985 103.994 289.985C82.0632 289.985 64.2786 289.82 64.2786 289.596C64.2786 289.371 82.0632 289.206 103.994 289.206C125.924 289.206 143.695 289.386 143.695 289.596Z" fill="#DDDDDD"/>
<path id="Vector_17" d="M147.557 193.353C147.557 193.563 129.786 193.742 107.856 193.742C85.9254 193.742 68.1407 193.563 68.1407 193.353C68.1407 193.144 85.9254 192.964 107.856 192.964C129.786 192.964 147.557 193.129 147.557 193.353Z" fill="#DDDDDD"/>
<path id="Vector_18" d="M126.383 186.109C122.987 186.494 119.572 186.624 116.161 186.498C112.745 186.624 109.325 186.494 105.925 186.109C109.324 185.714 112.745 185.584 116.161 185.72C119.572 185.585 122.988 185.715 126.383 186.109Z" fill="#DDDDDD"/>
<path id="Vector_19" d="M85.3718 238.72C81.9716 239.106 78.5518 239.236 75.1358 239.109C71.7243 239.236 68.309 239.106 64.9133 238.72C68.309 238.335 71.7243 238.205 75.1358 238.331C78.5518 238.205 81.9716 238.335 85.3718 238.72Z" fill="#DDDDDD"/>
<path id="Vector_20" d="M84.8855 248.105C81.4899 248.49 78.0746 248.62 74.6631 248.494C71.2471 248.62 67.8273 248.49 64.4271 248.105C67.8267 247.711 71.2471 247.581 74.6631 247.716C78.0746 247.581 81.4904 247.711 84.8855 248.105Z" fill="#DDDDDD"/>
<path id="Vector_21" d="M262.097 153.18C262.097 153.404 212.606 153.569 151.568 153.569C90.5302 153.569 41.0114 153.404 41.0114 153.18C41.0114 152.955 90.5032 152.791 151.568 152.791C212.633 152.791 262.097 152.97 262.097 153.18Z" fill="#DDDDDD"/>
<path id="Vector_22" d="M55.9332 147.806C57.3801 147.806 58.553 146.506 58.553 144.903C58.553 143.299 57.3801 141.999 55.9332 141.999C54.4864 141.999 53.3135 143.299 53.3135 144.903C53.3135 146.506 54.4864 147.806 55.9332 147.806Z" fill="#6C63FF"/>
<path id="Vector_23" d="M67.1819 147.806C68.6287 147.806 69.8017 146.506 69.8017 144.903C69.8017 143.299 68.6287 141.999 67.1819 141.999C65.735 141.999 64.5621 143.299 64.5621 144.903C64.5621 146.506 65.735 147.806 67.1819 147.806Z" fill="#6C63FF"/>
<path id="Vector_24" d="M78.4307 147.806C79.8775 147.806 81.0504 146.506 81.0504 144.903C81.0504 143.299 79.8775 141.999 78.4307 141.999C76.9838 141.999 75.8109 143.299 75.8109 144.903C75.8109 146.506 76.9838 147.806 78.4307 147.806Z" fill="#6C63FF"/>
<path id="Vector_25" d="M817.864 221.687H597.777L614.05 47.9266H836L817.864 221.687Z" fill="#263238"/>
<path id="Vector_26" d="M621.977 192.53C621.788 192.53 624.056 166.366 627.054 134.156C630.052 101.945 632.645 75.7816 632.834 75.8714C633.023 75.9613 630.754 102.02 627.756 134.246C624.758 166.471 622.166 192.545 621.977 192.53Z" fill="#DDDDDD"/>
<path id="Vector_27" d="M662.043 81.6938C654.686 82.2127 647.307 82.2127 639.95 81.6938C647.307 81.175 654.686 81.175 662.043 81.6938Z" fill="#DDDDDD"/>
<path id="Vector_28" d="M756.057 81.6938C756.057 81.9034 736.355 82.083 712.048 82.083C687.74 82.083 668.038 81.9034 668.038 81.6938C668.038 81.4843 687.74 81.3047 712.048 81.3047C736.355 81.3047 756.057 81.4843 756.057 81.6938Z" fill="#DDDDDD"/>
<path id="Vector_29" d="M659.45 143.451C652.089 143.969 644.705 143.969 637.344 143.451C644.705 142.932 652.089 142.932 659.45 143.451Z" fill="#DDDDDD"/>
<path id="Vector_30" d="M753.518 143.451C753.518 143.66 733.816 143.84 709.509 143.84C685.202 143.84 665.5 143.66 665.5 143.451C665.5 143.241 685.202 143.062 709.509 143.062C733.816 143.062 753.518 143.226 753.518 143.451Z" fill="#DDDDDD"/>
<path id="Vector_31" d="M723.472 171.919C723.472 172.129 703.77 172.308 679.463 172.308C655.156 172.308 635.453 172.129 635.453 171.919C635.453 171.71 655.156 171.53 679.463 171.53C703.77 171.53 723.472 171.695 723.472 171.919Z" fill="#DDDDDD"/>
<path id="Vector_32" d="M671.792 99.1313C671.792 99.3408 664.824 99.5204 656.249 99.5204C647.674 99.5204 640.706 99.3408 640.706 99.1313C640.706 98.9217 647.661 98.7122 656.29 98.7122C664.919 98.7122 671.792 98.9067 671.792 99.1313Z" fill="#DDDDDD"/>
<path id="Vector_33" d="M670.996 124.681C670.996 124.906 664.041 125.07 655.453 125.07C646.864 125.07 639.91 124.906 639.91 124.681C639.91 124.457 646.864 124.292 655.453 124.292C664.041 124.292 670.996 124.472 670.996 124.681Z" fill="#DDDDDD"/>
<path id="Vector_34" d="M697.274 161.217C697.274 161.427 690.32 161.607 681.731 161.607C673.143 161.607 666.188 161.427 666.188 161.217C666.188 161.008 673.143 160.828 681.731 160.828C690.32 160.828 697.274 161.008 697.274 161.217Z" fill="#DDDDDD"/>
<path id="Vector_35" d="M784.874 99.1313C784.874 99.3408 767.09 99.5204 745.159 99.5204C723.229 99.5204 705.458 99.3408 705.458 99.1313C705.458 98.9217 723.229 98.7421 745.159 98.7421C767.09 98.7421 784.874 98.9068 784.874 99.1313Z" fill="#DDDDDD"/>
<path id="Vector_36" d="M760.365 126.163C760.365 126.387 742.58 126.552 720.65 126.552C698.719 126.552 680.948 126.387 680.948 126.163C680.948 125.938 698.719 125.774 720.65 125.774C742.58 125.774 760.365 125.953 760.365 126.163Z" fill="#DDDDDD"/>
<path id="Vector_37" d="M787.683 161.217C787.683 161.427 769.912 161.607 747.982 161.607C726.051 161.607 708.28 161.427 708.28 161.217C708.28 161.008 726.051 160.828 747.982 160.828C769.912 160.828 787.683 161.008 787.683 161.217Z" fill="#DDDDDD"/>
<path id="Vector_38" d="M715.181 192.53C715.181 192.739 697.396 192.919 675.479 192.919C653.562 192.919 635.764 192.739 635.764 192.53C635.764 192.32 653.535 192.141 675.479 192.141C697.423 192.141 715.181 192.305 715.181 192.53Z" fill="#DDDDDD"/>
<path id="Vector_39" d="M802.996 192.53C802.996 192.739 785.225 192.919 763.295 192.919C741.365 192.919 723.58 192.739 723.58 192.53C723.58 192.32 741.365 192.141 763.295 192.141C785.225 192.141 802.996 192.305 802.996 192.53Z" fill="#DDDDDD"/>
<path id="Vector_40" d="M715.167 202.708C715.167 202.932 697.396 203.097 675.466 203.097C653.535 203.097 635.764 202.932 635.764 202.708C635.764 202.483 653.535 202.319 675.466 202.319C697.396 202.319 715.167 202.498 715.167 202.708Z" fill="#DDDDDD"/>
<path id="Vector_41" d="M719.043 106.465C719.043 106.675 701.258 106.855 679.328 106.855C657.397 106.855 639.626 106.675 639.626 106.465C639.626 106.256 657.397 106.076 679.328 106.076C701.258 106.076 719.043 106.196 719.043 106.465Z" fill="#DDDDDD"/>
<path id="Vector_42" d="M697.855 99.2211C691.048 99.74 684.217 99.74 677.41 99.2211C684.217 98.7022 691.048 98.7022 697.855 99.2211Z" fill="#DDDDDD"/>
<path id="Vector_43" d="M656.844 151.833C650.032 152.352 643.197 152.352 636.385 151.833C643.197 151.314 650.032 151.314 656.844 151.833Z" fill="#DDDDDD"/>
<path id="Vector_44" d="M656.357 161.217C649.55 161.736 642.719 161.736 635.912 161.217C642.719 160.698 649.55 160.698 656.357 161.217Z" fill="#DDDDDD"/>
<path id="Vector_45" d="M833.583 66.292C833.583 66.5166 784.077 66.6812 723.04 66.6812C662.002 66.6812 612.497 66.5166 612.497 66.292C612.497 66.0675 661.975 65.9029 723.04 65.9029C784.104 65.9029 833.583 66.0825 833.583 66.292Z" fill="#DDDDDD"/>
<path id="Vector_46" d="M627.405 60.9187C628.852 60.9187 630.025 59.6186 630.025 58.0149C630.025 56.4112 628.852 55.1112 627.405 55.1112C625.958 55.1112 624.785 56.4112 624.785 58.0149C624.785 59.6186 625.958 60.9187 627.405 60.9187Z" fill="#6C63FF"/>
<path id="Vector_47" d="M638.654 60.9187C640.101 60.9187 641.274 59.6186 641.274 58.0149C641.274 56.4112 640.101 55.1112 638.654 55.1112C637.207 55.1112 636.034 56.4112 636.034 58.0149C636.034 59.6186 637.207 60.9187 638.654 60.9187Z" fill="#6C63FF"/>
<path id="Vector_48" d="M649.903 60.9187C651.349 60.9187 652.522 59.6186 652.522 58.0149C652.522 56.4112 651.349 55.1112 649.903 55.1112C648.456 55.1112 647.283 56.4112 647.283 58.0149C647.283 59.6186 648.456 60.9187 649.903 60.9187Z" fill="#6C63FF"/>
<path id="Vector_49" d="M356.26 114.232H219.182L229.31 6H367.549L356.26 114.232Z" fill="#263238"/>
<path id="Vector_50" d="M234.252 96.0608C234.063 96.0608 235.414 79.761 237.277 59.7042C239.141 39.6475 240.815 23.3925 241.018 23.4075C241.22 23.4224 239.856 39.7223 237.979 59.7791C236.102 79.8358 234.441 96.0908 234.252 96.0608Z" fill="#DDDDDD"/>
<path id="Vector_51" d="M259.275 27.0296C254.7 27.5485 250.089 27.5485 245.515 27.0296C250.089 26.5107 254.7 26.5107 259.275 27.0296Z" fill="#DDDDDD"/>
<path id="Vector_52" d="M317.76 27.0296C317.76 27.2541 305.485 27.4188 290.348 27.4188C275.21 27.4188 262.935 27.2541 262.935 27.0296C262.935 26.8051 275.21 26.6404 290.348 26.6404C305.485 26.6404 317.76 26.8799 317.76 27.0296Z" fill="#DDDDDD"/>
<path id="Vector_53" d="M257.587 65.4967C253.012 66.0156 248.401 66.0156 243.827 65.4967C248.401 64.9778 253.012 64.9778 257.587 65.4967Z" fill="#DDDDDD"/>
<path id="Vector_54" d="M316.14 65.4967C316.14 65.7063 303.865 65.8859 288.727 65.8859C273.589 65.8859 261.314 65.7063 261.314 65.4967C261.314 65.2872 273.589 65.1075 288.727 65.1075C303.865 65.1075 316.14 65.2872 316.14 65.4967Z" fill="#DDDDDD"/>
<path id="Vector_55" d="M297.464 83.2185C297.464 83.443 285.189 83.6077 270.051 83.6077C254.913 83.6077 242.652 83.443 242.652 83.2185C242.652 82.994 254.913 82.8293 270.051 82.8293C285.189 82.8293 297.464 83.009 297.464 83.2185Z" fill="#DDDDDD"/>
<path id="Vector_56" d="M265.271 37.8963C262.056 38.2814 258.82 38.4114 255.588 38.2854C252.361 38.4117 249.13 38.2817 245.92 37.8963C249.13 37.5018 252.361 37.3718 255.588 37.5071C258.82 37.3721 262.056 37.5022 265.271 37.8963Z" fill="#DDDDDD"/>
<path id="Vector_57" d="M264.785 53.8219C261.57 54.2159 258.334 54.346 255.102 54.211C251.871 54.346 248.634 54.2159 245.42 53.8219C248.635 53.4367 251.871 53.3067 255.102 53.4327C258.334 53.3067 261.57 53.4367 264.785 53.8219Z" fill="#DDDDDD"/>
<path id="Vector_58" d="M281.151 76.5579C277.937 76.9519 274.701 77.082 271.469 76.947C268.237 77.082 265.001 76.9519 261.787 76.5579C265.002 76.1728 268.237 76.0427 271.469 76.1687C274.701 76.0427 277.936 76.1728 281.151 76.5579Z" fill="#DDDDDD"/>
<path id="Vector_59" d="M335.707 31.8962C335.707 32.1058 324.634 32.2854 310.981 32.2854C297.329 32.2854 286.283 32.1058 286.283 31.8962C286.283 31.6867 297.356 31.5071 311.022 31.5071C324.688 31.5071 335.707 31.6717 335.707 31.8962Z" fill="#DDDDDD"/>
<path id="Vector_60" d="M320.434 54.7349C320.434 54.9445 309.361 55.1241 295.709 55.1241C282.056 55.1241 270.983 54.9445 270.983 54.7349C270.983 54.5254 282.056 54.3458 295.709 54.3458C309.361 54.3458 320.434 54.5254 320.434 54.7349Z" fill="#DDDDDD"/>
<path id="Vector_61" d="M337.463 70.5579C337.463 70.7824 326.389 70.947 312.737 70.947C299.085 70.947 287.998 70.7824 287.998 70.5579C287.998 70.3333 299.071 70.1687 312.737 70.1687C326.403 70.1687 337.463 70.3483 337.463 70.5579Z" fill="#DDDDDD"/>
<path id="Vector_62" d="M292.306 96.0608C292.306 96.2854 281.232 96.45 267.566 96.45C253.901 96.45 242.841 96.2854 242.841 96.0608C242.841 95.8363 253.914 95.6717 267.566 95.6717C281.219 95.6717 292.306 95.8513 292.306 96.0608Z" fill="#DDDDDD"/>
<path id="Vector_63" d="M347.05 90.0608C347.05 90.2854 335.977 90.45 322.325 90.45C308.672 90.45 297.586 90.2854 297.586 90.0608C297.586 89.8363 308.659 89.6717 322.325 89.6717C335.991 89.6717 347.05 89.8513 347.05 90.0608Z" fill="#DDDDDD"/>
<path id="Vector_64" d="M292.292 102.407C292.292 102.632 281.219 102.796 267.566 102.796C253.914 102.796 242.841 102.632 242.841 102.407C242.841 102.183 253.901 102.018 267.566 102.018C281.232 102.018 292.292 102.198 292.292 102.407Z" fill="#DDDDDD"/>
<path id="Vector_65" d="M294.696 42.4614C294.696 42.6859 283.623 42.8506 269.97 42.8506C256.318 42.8506 245.245 42.6859 245.245 42.4614C245.245 42.2369 256.318 42.0723 269.97 42.0723C283.623 42.0723 294.696 42.2519 294.696 42.4614Z" fill="#DDDDDD"/>
<path id="Vector_66" d="M281.516 37.9561C277.28 38.4746 273.005 38.4746 268.768 37.9561C273.005 37.4375 277.28 37.4375 281.516 37.9561Z" fill="#DDDDDD"/>
<path id="Vector_67" d="M255.967 70.7205C251.735 71.2394 247.464 71.2394 243.232 70.7205C247.464 70.2016 251.735 70.2016 255.967 70.7205Z" fill="#DDDDDD"/>
<path id="Vector_68" d="M255.669 76.5579C251.433 77.0764 247.158 77.0764 242.922 76.5579C247.158 76.0393 251.433 76.0393 255.669 76.5579Z" fill="#DDDDDD"/>
<path id="Vector_69" d="M366.037 17.4503C366.037 17.6599 335.221 17.8395 297.167 17.8395C259.113 17.8395 228.297 17.6599 228.297 17.4503C228.297 17.2408 259.113 17.0612 297.167 17.0612C335.221 17.0612 366.037 17.2258 366.037 17.4503Z" fill="#DDDDDD"/>
<path id="Vector_70" d="M239.262 12.2865C239.252 12.6438 239.146 12.9895 238.958 13.2802C238.77 13.5709 238.509 13.7936 238.207 13.92C237.906 14.0465 237.577 14.0712 237.263 13.991C236.948 13.9108 236.662 13.7293 236.441 13.4693C236.22 13.2093 236.073 12.8826 236.018 12.5301C235.964 12.1777 236.005 11.8154 236.137 11.4889C236.268 11.1623 236.484 10.8862 236.756 10.6952C237.029 10.5041 237.346 10.4068 237.669 10.4155C237.885 10.4213 238.097 10.4744 238.294 10.5718C238.491 10.6692 238.669 10.8089 238.817 10.9828C238.966 11.1568 239.081 11.3616 239.158 11.5853C239.234 11.8091 239.269 12.0474 239.262 12.2865Z" fill="#6C63FF"/>
<path id="Vector_71" d="M246.271 12.2865C246.26 12.6419 246.155 12.986 245.97 13.2759C245.784 13.5657 245.525 13.7885 245.226 13.9164C244.926 14.0444 244.6 14.0718 244.286 13.9953C243.973 13.9188 243.687 13.7418 243.464 13.4863C243.241 13.2308 243.09 12.9081 243.031 12.5585C242.973 12.2089 243.008 11.8479 243.133 11.5204C243.258 11.193 243.467 10.9136 243.735 10.7171C244.002 10.5206 244.316 10.4157 244.637 10.4155C244.856 10.4154 245.073 10.4642 245.275 10.5589C245.477 10.6536 245.659 10.7924 245.812 10.967C245.964 11.1415 246.083 11.3483 246.162 11.575C246.241 11.8017 246.278 12.0437 246.271 12.2865Z" fill="#6C63FF"/>
<path id="Vector_72" d="M253.279 12.2865C253.269 12.6419 253.164 12.986 252.978 13.2759C252.792 13.5657 252.534 13.7885 252.234 13.9164C251.935 14.0444 251.608 14.0718 251.295 13.9953C250.981 13.9188 250.695 13.7418 250.472 13.4863C250.249 13.2308 250.099 12.9081 250.04 12.5585C249.981 12.2089 250.017 11.8479 250.142 11.5204C250.267 11.193 250.476 10.9136 250.743 10.7171C251.011 10.5206 251.325 10.4157 251.645 10.4155C251.865 10.4154 252.082 10.4642 252.283 10.5589C252.485 10.6536 252.668 10.7924 252.82 10.967C252.973 11.1415 253.092 11.3483 253.171 11.575C253.25 11.8017 253.287 12.0437 253.279 12.2865Z" fill="#6C63FF"/>
<path id="Vector_73" d="M728.806 297.109H659.774V544.765H728.806V297.109Z" fill="#C5C2C1"/>
<path id="Vector_74" d="M787.413 297.154H728.806V544.721H787.413V297.154Z" fill="#CCCCCC"/>
<path id="Vector_75" d="M720.542 307.138H665.162V360.483H720.542V307.138Z" fill="#DDDDDD"/>
<path id="Vector_76" d="M720.542 366.53H665.162V419.875H720.542V366.53Z" fill="#DDDDDD"/>
<path id="Vector_77" d="M720.542 425.922H665.162V479.267H720.542V425.922Z" fill="#DDDDDD"/>
<path id="Vector_78" d="M720.542 485.329H665.162V538.674H720.542V485.329Z" fill="#DDDDDD"/>
<path id="Vector_79" d="M692.859 316.987C692.861 317.41 692.75 317.826 692.54 318.18C692.329 318.534 692.029 318.81 691.676 318.975C691.323 319.139 690.935 319.183 690.559 319.103C690.184 319.022 689.838 318.819 689.567 318.52C689.295 318.222 689.11 317.84 689.035 317.425C688.959 317.009 688.996 316.578 689.142 316.186C689.288 315.794 689.535 315.459 689.853 315.223C690.171 314.987 690.545 314.861 690.928 314.861C691.437 314.861 691.926 315.085 692.288 315.483C692.65 315.881 692.855 316.421 692.859 316.987Z" fill="black"/>
<path id="Vector_80" d="M692.859 377.112C692.861 377.536 692.75 377.951 692.54 378.305C692.329 378.659 692.029 378.936 691.676 379.1C691.323 379.264 690.935 379.309 690.559 379.228C690.184 379.147 689.838 378.944 689.567 378.646C689.295 378.347 689.11 377.966 689.035 377.55C688.959 377.134 688.996 376.703 689.142 376.311C689.288 375.919 689.535 375.584 689.853 375.348C690.171 375.112 690.545 374.986 690.928 374.986C691.437 374.986 691.926 375.21 692.288 375.608C692.65 376.006 692.855 376.547 692.859 377.112Z" fill="black"/>
<path id="Vector_81" d="M692.859 437.162C692.859 437.586 692.745 438 692.533 438.352C692.321 438.704 692.019 438.978 691.667 439.14C691.314 439.302 690.925 439.344 690.551 439.262C690.176 439.179 689.832 438.975 689.562 438.676C689.292 438.377 689.108 437.995 689.034 437.58C688.959 437.165 688.997 436.734 689.143 436.343C689.29 435.952 689.537 435.618 689.855 435.383C690.172 435.148 690.546 435.022 690.928 435.022C691.44 435.022 691.931 435.248 692.293 435.649C692.655 436.05 692.859 436.595 692.859 437.162Z" fill="black"/>
<path id="Vector_82" d="M692.859 497.243C692.861 497.667 692.75 498.082 692.54 498.436C692.329 498.79 692.029 499.067 691.676 499.231C691.323 499.395 690.935 499.44 690.559 499.359C690.184 499.278 689.838 499.075 689.567 498.777C689.295 498.478 689.11 498.097 689.035 497.681C688.959 497.265 688.996 496.834 689.142 496.442C689.288 496.05 689.535 495.715 689.853 495.479C690.171 495.243 690.545 495.117 690.928 495.117C691.437 495.117 691.926 495.341 692.288 495.739C692.65 496.137 692.855 496.678 692.859 497.243Z" fill="black"/>
<path id="Vector_83" d="M667.755 544.766H659.774V594.443H667.755V544.766Z" fill="#DDDDDD"/>
<path id="Vector_84" d="M728.522 544.766H720.542V594.443H728.522V544.766Z" fill="#C2C2C1"/>
<path id="Vector_85" d="M671.981 544H664V593.678H671.981V544Z" fill="#C5C2C1"/>
<path id="Vector_86" d="M786.549 544.766H778.568V594.443H786.549V544.766Z" fill="#CCCCCC"/>
<path id="Vector_87" d="M739.981 540H732V589.678H739.981V540Z" fill="#CCCCCC"/>
<path id="Vector_88" d="M79.8622 580.419C77.8231 578.488 73.2588 572.351 76.7698 565.211C78.1202 562.607 80.8209 561.305 83.2921 560.152C85.8395 559.199 88.2431 557.827 90.4222 556.081C94.2978 552.444 95.3646 546.397 97.9304 541.547C100.888 535.994 106.397 531.818 112.218 532.118C118.875 532.447 124.371 538.449 126.95 545.289C129.53 552.13 129.557 559.733 129.651 567.127C129.651 571.213 129.516 575.823 126.788 578.593C124.29 581.137 120.509 581.167 117.106 581.047L80.6454 579.82" fill="#263238" fill-opacity="0.66"/>
<path id="Vector_89" d="M149.502 469.912H53.7456L71.0036 583.382C71.3536 585.743 72.3007 587.946 73.7349 589.734C75.1691 591.523 77.0315 592.823 79.1059 593.485L79.4435 593.59C79.7233 593.686 80.0073 593.766 80.2943 593.83C80.9775 594.004 81.6735 594.109 82.3739 594.144V594.249L82.8465 594.174H125.519C126.308 594.169 127.095 594.079 127.869 593.905C130.356 593.487 132.651 592.176 134.4 590.172C136.15 588.168 137.257 585.583 137.551 582.813L145.842 504.622L146.22 501.509L149.502 470.541V469.912ZM131.434 542.296H121.616L122.602 509.367H133.986L131.434 542.296ZM134.945 509.367H144.397L140.886 542.296H132.338L134.945 509.367ZM106.87 578.802L106.276 550.199H120.428L119.564 578.802H106.87ZM91.57 550.199H105.331L105.938 578.802H93.5821L91.57 550.199ZM92.6369 578.802H81.1045C80.0107 571.079 78.5793 561.035 77.0533 550.199H90.6383L92.6369 578.802ZM91.0164 542.296L88.6937 509.367H104.466L105.155 542.296H91.0164ZM106.114 542.296L105.425 509.367H121.63L120.63 542.296H106.114ZM105.25 501.464L104.615 470.96H122.805L121.886 501.464H105.25ZM104.304 501.464H88.0996L85.9524 470.96H103.629L104.304 501.464ZM87.1813 501.464H70.0853C69.4777 497.258 68.897 493.262 68.3838 489.684C66.6013 477.351 65.9261 472.711 65.5615 470.96H85.0747L87.1813 501.464ZM87.7484 509.367L90.0576 542.296H75.919C75.4464 538.958 74.9602 535.575 74.4741 532.193C73.3668 524.424 72.2595 516.641 71.2197 509.367H87.7484ZM74.9602 542.296H65.7101L60.7136 509.367H70.2204L74.9602 542.296ZM76.0811 550.199C77.4315 560.092 78.8764 569.851 80.1322 578.802H71.2467L66.8984 550.199H76.0811ZM120.509 578.802L121.373 550.199H130.826L128.611 578.802H120.509ZM122.886 501.509L123.804 471.005H136.997L134.648 501.509H122.886ZM64.6973 471.005C65.0754 473.22 66.8174 485.224 69.1671 501.509H59.5523L54.9069 471.005H64.6973ZM137.011 578.772H129.638L131.852 550.169H140.076L137.011 578.772ZM145.235 501.434H135.593L137.956 470.93H148.476L145.235 501.434Z" fill="#DDDDDD"/>
<g id="Floor">
<path id="Vector_90" d="M805.526 594.428C805.526 594.653 630.758 594.818 415.263 594.818C199.768 594.818 25 594.653 25 594.428C25 594.204 199.727 594.039 415.33 594.039C630.934 594.039 805.526 594.219 805.526 594.428Z" fill="#263238"/>
</g>
<g id="Screens">
<path id="Vector_91" d="M441.388 268.444H291.63L302.703 150.199H453.731L441.388 268.444Z" fill="#263238"/>
<path id="Vector_92" d="M433.772 268.444H284L295.073 150.199H446.101L433.772 268.444Z" fill="#455A64"/>
<path id="Vector_93" d="M428.208 263.086H289.24L299.516 153.372H439.66L428.208 263.086Z" fill="#F5F5F5"/>
<path id="Vector_94" d="M304.31 244.795C304.107 244.795 305.485 228.256 307.389 207.93C309.293 187.603 310.967 171.109 311.156 171.139C311.345 171.169 309.981 187.603 308.077 208.004C306.173 228.405 304.499 244.81 304.31 244.795Z" fill="#263238"/>
<path id="Vector_95" d="M329.603 174.806C324.965 175.325 320.291 175.325 315.653 174.806C320.291 174.287 324.965 174.287 329.603 174.806Z" fill="#263238"/>
<path id="Vector_96" d="M388.966 174.806C388.966 175.016 376.529 175.195 361.175 175.195C345.821 175.195 333.397 175.016 333.397 174.806C333.397 174.596 345.834 174.417 361.175 174.417C376.515 174.417 388.966 174.596 388.966 174.806Z" fill="#FF725E"/>
<path id="Vector_97" d="M327.969 213.797C323.326 214.316 318.648 214.316 314.006 213.797C318.648 213.278 323.326 213.278 327.969 213.797Z" fill="#263238"/>
<path id="Vector_98" d="M387.318 213.797C387.318 214.022 374.881 214.186 359.541 214.186C344.2 214.186 331.75 214.022 331.75 213.797C331.75 213.572 344.187 213.408 359.541 213.408C374.895 213.408 387.318 213.587 387.318 213.797Z" fill="#FF725E"/>
<path id="Vector_99" d="M368.386 231.773C368.386 231.983 355.949 232.162 340.608 232.162C325.268 232.162 312.817 231.983 312.817 231.773C312.817 231.564 325.254 231.384 340.608 231.384C355.962 231.384 368.386 231.564 368.386 231.773Z" fill="#FF725E"/>
<path id="Vector_100" d="M335.815 185.807C332.556 186.211 329.274 186.346 325.997 186.211C322.72 186.346 319.439 186.211 316.18 185.807C319.44 185.423 322.721 185.292 325.997 185.418C329.274 185.292 332.554 185.423 335.815 185.807Z" fill="#FF725E"/>
<path id="Vector_101" d="M335.261 201.958C332.001 202.342 328.72 202.472 325.443 202.347C322.167 202.472 318.886 202.342 315.626 201.958C318.886 201.564 322.167 201.434 325.443 201.568C328.72 201.434 332.001 201.564 335.261 201.958Z" fill="#FF725E"/>
<path id="Vector_102" d="M351.857 225.023C348.597 225.408 345.316 225.538 342.04 225.412C338.763 225.538 335.483 225.408 332.222 225.023C335.482 224.628 338.763 224.498 342.04 224.634C345.316 224.499 348.598 224.629 351.857 225.023Z" fill="#FF725E"/>
<path id="Vector_103" d="M407.156 185.807C407.156 186.032 395.934 186.211 382.092 186.211C368.251 186.211 357.016 186.032 357.016 185.807C357.016 185.583 368.237 185.418 382.092 185.418C395.947 185.418 407.156 185.598 407.156 185.807Z" fill="#263238"/>
<path id="Vector_104" d="M391.68 202.885C391.68 203.11 380.458 203.275 366.617 203.275C352.775 203.275 341.54 203.11 341.54 202.885C341.54 202.661 352.762 202.496 366.617 202.496C380.472 202.496 391.68 202.676 391.68 202.885Z" fill="#263238"/>
<path id="Vector_105" d="M408.938 225.023C408.938 225.232 397.716 225.412 383.875 225.412C370.033 225.412 358.771 225.217 358.771 225.023C358.771 224.828 369.993 224.634 383.848 224.634C397.703 224.634 408.938 224.798 408.938 225.023Z" fill="#263238"/>
<path id="Vector_106" d="M363.16 244.795C363.16 245.005 351.925 245.184 338.083 245.184C324.242 245.184 313.006 245.005 313.006 244.795C313.006 244.586 324.242 244.406 338.083 244.406C351.925 244.406 363.16 244.571 363.16 244.795Z" fill="#263238"/>
<path id="Vector_107" d="M418.607 244.795C418.607 245.005 407.385 245.184 393.544 245.184C379.702 245.184 368.467 245.005 368.467 244.795C368.467 244.586 379.689 244.406 393.544 244.406C407.399 244.406 418.607 244.571 418.607 244.795Z" fill="#263238"/>
<path id="Vector_108" d="M363.146 251.216C363.146 251.441 351.925 251.605 338.083 251.605C324.242 251.605 313.006 251.441 313.006 251.216C313.006 250.992 324.228 250.827 338.083 250.827C351.938 250.827 363.146 251.007 363.146 251.216Z" fill="#263238"/>
<path id="Vector_109" d="M365.591 190.447C365.591 190.657 354.369 190.836 340.527 190.836C326.686 190.836 315.451 190.657 315.451 190.447C315.451 190.238 326.672 190.058 340.527 190.058C354.382 190.058 365.591 190.238 365.591 190.447Z" fill="#263238"/>
<path id="Vector_110" d="M352.222 185.882C347.927 186.401 343.593 186.401 339.298 185.882C343.592 185.343 347.928 185.343 352.222 185.882Z" fill="#455A64"/>
<path id="Vector_111" d="M326.362 219.096C322.071 219.614 317.743 219.614 313.452 219.096C317.743 218.577 322.071 218.577 326.362 219.096Z" fill="#455A64"/>
<path id="Vector_112" d="M326.011 225.023C321.72 225.542 317.391 225.542 313.101 225.023C317.391 224.504 321.72 224.504 326.011 225.023Z" fill="#455A64"/>
<path id="Vector_113" d="M437.918 165.092C437.918 165.302 406.67 165.481 368.116 165.481C329.562 165.481 298.314 165.302 298.314 165.092C298.314 164.882 329.562 164.688 368.116 164.688C406.67 164.688 437.918 164.867 437.918 165.092Z" fill="#263238"/>
<path id="Vector_114" d="M309.387 159.853C309.387 160.218 309.29 160.575 309.106 160.878C308.923 161.181 308.663 161.417 308.359 161.556C308.055 161.694 307.72 161.73 307.397 161.658C307.075 161.586 306.779 161.409 306.547 161.15C306.315 160.891 306.158 160.561 306.096 160.203C306.033 159.845 306.068 159.474 306.196 159.138C306.324 158.802 306.539 158.516 306.813 158.315C307.088 158.115 307.411 158.009 307.74 158.012C307.957 158.012 308.173 158.06 308.373 158.153C308.574 158.245 308.756 158.381 308.91 158.552C309.063 158.724 309.184 158.927 309.266 159.15C309.348 159.373 309.389 159.612 309.387 159.853Z" fill="white"/>
<path id="Vector_115" d="M316.49 159.853C316.49 160.218 316.393 160.575 316.21 160.878C316.026 161.181 315.766 161.417 315.462 161.556C315.158 161.694 314.823 161.73 314.5 161.658C314.178 161.586 313.882 161.409 313.65 161.15C313.418 160.891 313.261 160.561 313.199 160.203C313.136 159.845 313.171 159.474 313.299 159.138C313.427 158.802 313.642 158.516 313.916 158.315C314.191 158.115 314.514 158.009 314.843 158.012C315.06 158.012 315.276 158.06 315.477 158.153C315.677 158.245 315.859 158.381 316.013 158.552C316.166 158.724 316.287 158.927 316.369 159.15C316.451 159.373 316.492 159.612 316.49 159.853Z" fill="white"/>
<path id="Vector_116" d="M323.661 159.853C323.661 160.218 323.563 160.575 323.38 160.878C323.197 161.181 322.937 161.417 322.632 161.556C322.328 161.694 321.993 161.73 321.671 161.658C321.348 161.586 321.052 161.409 320.821 161.15C320.589 160.891 320.432 160.561 320.369 160.203C320.307 159.845 320.342 159.474 320.469 159.138C320.597 158.802 320.812 158.516 321.087 158.315C321.362 158.115 321.684 158.009 322.013 158.012C322.231 158.012 322.446 158.06 322.647 158.153C322.848 158.245 323.03 158.381 323.183 158.552C323.336 158.724 323.457 158.927 323.539 159.15C323.621 159.373 323.663 159.612 323.661 159.853Z" fill="white"/>
<path id="Vector_117" d="M638.126 272.036H480.59L492.23 147.64H651.117L638.126 272.036Z" fill="#263238"/>
<path id="Vector_118" d="M630.105 272.036H472.569L484.222 147.64H643.096L630.105 272.036Z" fill="#455A64"/>
<path id="Vector_119" d="M624.271 266.394H478.092L488.895 150.977H636.317L624.271 266.394Z" fill="#EBEBEB"/>
<path id="Vector_120" d="M494.013 245.409C493.824 245.409 495.282 228.016 497.267 206.627C499.252 185.239 501.035 167.906 501.224 167.936C501.413 167.966 499.954 185.313 497.969 206.717C495.984 228.121 494.202 245.424 494.013 245.409Z" fill="#263238"/>
<path id="Vector_121" d="M520.629 171.798C515.747 172.316 510.832 172.316 505.95 171.798C510.831 171.259 515.748 171.259 520.629 171.798Z" fill="#263238"/>
<path id="Vector_122" d="M583.071 171.798C583.071 172.007 569.986 172.187 553.835 172.187C537.684 172.187 524.613 172.007 524.613 171.798C524.613 171.588 537.698 171.393 553.835 171.393C569.972 171.393 583.071 171.573 583.071 171.798Z" fill="#FF725E"/>
<path id="Vector_123" d="M518.9 212.809C514.019 213.328 509.103 213.328 504.222 212.809C509.103 212.29 514.019 212.29 518.9 212.809Z" fill="#263238"/>
<path id="Vector_124" d="M581.343 212.809C581.343 213.019 568.244 213.198 552.107 213.198C535.969 213.198 522.884 213.019 522.884 212.809C522.884 212.6 535.969 212.42 552.107 212.42C568.244 212.42 581.343 212.6 581.343 212.809Z" fill="#FF725E"/>
<path id="Vector_125" d="M561.424 231.713C561.424 231.938 548.339 232.103 532.202 232.103C516.065 232.103 502.966 231.938 502.966 231.713C502.966 231.489 516.051 231.324 532.202 231.324C548.353 231.324 561.424 231.504 561.424 231.713Z" fill="#FF725E"/>
<path id="Vector_126" d="M527.097 183.308C520.223 183.827 513.324 183.827 506.45 183.308C513.324 182.789 520.223 182.789 527.097 183.308Z" fill="#FF725E"/>
<path id="Vector_127" d="M526.571 200.341C519.697 200.88 512.797 200.88 505.923 200.341C512.798 199.822 519.696 199.822 526.571 200.341Z" fill="#FF725E"/>
<path id="Vector_128" d="M544.031 224.619C537.157 225.138 530.258 225.138 523.384 224.619C530.258 224.1 537.157 224.1 544.031 224.619Z" fill="#FF725E"/>
<path id="Vector_129" d="M602.206 183.308C602.206 183.532 590.404 183.697 575.833 183.697C561.262 183.697 549.46 183.532 549.46 183.308C549.46 183.083 561.262 182.919 575.833 182.919C590.404 182.919 602.206 183.158 602.206 183.308Z" fill="#263238"/>
<path id="Vector_130" d="M585.934 201.269C585.934 201.494 574.118 201.658 559.561 201.658C545.004 201.658 533.188 201.494 533.188 201.269C533.188 201.044 544.99 200.88 559.561 200.88C574.131 200.88 585.934 201.119 585.934 201.269Z" fill="#263238"/>
<path id="Vector_131" d="M604.083 224.619C604.083 224.828 592.267 225.008 577.71 225.008C563.153 225.008 551.337 224.828 551.337 224.619C551.337 224.409 563.139 224.229 577.71 224.229C592.281 224.229 604.083 224.394 604.083 224.619Z" fill="#263238"/>
<path id="Vector_132" d="M555.928 245.409C555.928 245.618 544.126 245.798 529.555 245.798C514.984 245.798 503.182 245.618 503.182 245.409C503.182 245.199 514.998 245.02 529.555 245.02C544.112 245.02 555.928 245.199 555.928 245.409Z" fill="#263238"/>
<path id="Vector_133" d="M614.252 245.409C614.252 245.618 602.436 245.798 587.878 245.798C573.321 245.798 561.505 245.618 561.505 245.409C561.505 245.199 573.308 245.02 587.878 245.02C602.449 245.02 614.252 245.199 614.252 245.409Z" fill="#263238"/>
<path id="Vector_134" d="M555.928 252.159C555.928 252.369 544.126 252.548 529.555 252.548C514.984 252.548 503.182 252.369 503.182 252.159C503.182 251.95 514.984 251.77 529.555 251.77C544.126 251.77 555.928 251.965 555.928 252.159Z" fill="#263238"/>
<path id="Vector_135" d="M558.48 188.247C558.48 188.457 546.678 188.636 532.107 188.636C517.537 188.636 505.734 188.457 505.734 188.247C505.734 188.038 517.537 187.858 532.107 187.858C546.678 187.858 558.48 188.038 558.48 188.247Z" fill="#263238"/>
<path id="Vector_136" d="M544.409 183.427C539.893 183.946 535.341 183.946 530.824 183.427C535.341 182.909 539.893 182.909 544.409 183.427Z" fill="#455A64"/>
<path id="Vector_137" d="M517.172 218.377C512.656 218.896 508.103 218.896 503.587 218.377C508.103 217.858 512.656 217.858 517.172 218.377Z" fill="#455A64"/>
<path id="Vector_138" d="M516.848 224.619C512.332 225.137 507.779 225.137 503.263 224.619C507.779 224.1 512.332 224.1 516.848 224.619Z" fill="#455A64"/>
<path id="Vector_139" d="M634.561 161.56C634.561 161.784 601.693 161.949 561.141 161.949C520.588 161.949 487.72 161.784 487.72 161.56C487.72 161.335 520.588 161.17 561.141 161.17C601.693 161.17 634.561 161.35 634.561 161.56Z" fill="#263238"/>
<path id="Vector_140" d="M499.36 156.066C499.36 156.448 499.258 156.822 499.067 157.139C498.875 157.457 498.603 157.704 498.285 157.85C497.967 157.996 497.616 158.035 497.278 157.96C496.941 157.886 496.63 157.702 496.387 157.432C496.143 157.162 495.977 156.818 495.91 156.443C495.843 156.069 495.877 155.68 496.009 155.328C496.141 154.975 496.364 154.673 496.651 154.461C496.937 154.249 497.274 154.136 497.618 154.136C497.848 154.134 498.075 154.182 498.287 154.279C498.499 154.375 498.692 154.517 498.854 154.697C499.016 154.876 499.145 155.09 499.231 155.325C499.318 155.56 499.362 155.812 499.36 156.066Z" fill="white"/>
<path id="Vector_141" d="M506.828 156.066C506.828 156.448 506.726 156.822 506.534 157.139C506.343 157.457 506.071 157.704 505.753 157.85C505.434 157.996 505.084 158.035 504.746 157.96C504.408 157.886 504.098 157.702 503.854 157.432C503.611 157.162 503.445 156.818 503.377 156.443C503.31 156.069 503.345 155.68 503.477 155.328C503.608 154.975 503.832 154.673 504.118 154.461C504.405 154.249 504.741 154.136 505.086 154.136C505.315 154.134 505.543 154.182 505.755 154.279C505.967 154.375 506.16 154.517 506.322 154.697C506.484 154.876 506.612 155.09 506.699 155.325C506.786 155.56 506.83 155.812 506.828 156.066Z" fill="white"/>
<path id="Vector_142" d="M514.309 156.066C514.309 156.448 514.207 156.822 514.016 157.139C513.824 157.457 513.552 157.704 513.234 157.85C512.915 157.996 512.565 158.035 512.227 157.96C511.889 157.886 511.579 157.702 511.335 157.432C511.092 157.162 510.926 156.818 510.859 156.443C510.791 156.069 510.826 155.68 510.958 155.328C511.09 154.975 511.313 154.673 511.599 154.461C511.886 154.249 512.223 154.136 512.567 154.136C512.796 154.134 513.024 154.182 513.236 154.279C513.448 154.375 513.641 154.517 513.803 154.697C513.965 154.876 514.093 155.09 514.18 155.325C514.267 155.56 514.311 155.812 514.309 156.066Z" fill="white"/>
<path id="Vector_143" d="M548.244 124.784H397.797L408.925 6H560.641L548.244 124.784Z" fill="#263238"/>
<path id="Vector_144" d="M540.588 124.784H390.141L401.268 6H552.984L540.588 124.784Z" fill="#455A64"/>
<path id="Vector_145" d="M534.997 119.41H395.407L405.724 9.18811H546.502L534.997 119.41Z" fill="#FAFAFA"/>
<path id="Vector_146" d="M410.748 100.985C410.559 100.985 411.95 84.371 413.854 63.9551C415.758 43.5391 417.446 26.9698 417.648 26.9997C417.851 27.0297 416.446 43.5989 414.542 64.0299C412.638 84.4608 410.95 100.985 410.748 100.985Z" fill="#263238"/>
<path id="Vector_147" d="M436.176 30.6369C431.515 31.1558 426.819 31.1558 422.158 30.6369C426.819 30.118 431.515 30.118 436.176 30.6369Z" fill="#263238"/>
<path id="Vector_148" d="M495.795 30.6369C495.795 30.8465 483.304 31.0261 467.883 31.0261C452.461 31.0261 439.97 30.8465 439.97 30.6369C439.97 30.4274 452.461 30.2477 467.883 30.2477C483.304 30.2477 495.795 30.3825 495.795 30.6369Z" fill="#FF725E"/>
<path id="Vector_149" d="M434.515 69.7775C429.854 70.2964 425.158 70.2964 420.497 69.7775C425.158 69.2586 429.854 69.2586 434.515 69.7775Z" fill="#263238"/>
<path id="Vector_150" d="M494.148 69.7775C494.148 69.9871 481.643 70.1667 466.235 70.1667C450.827 70.1667 438.323 69.9871 438.323 69.7775C438.323 69.568 450.814 69.3884 466.235 69.3884C481.657 69.3884 494.148 69.553 494.148 69.7775Z" fill="#FF725E"/>
<path id="Vector_151" d="M475.134 87.8286C475.134 88.0381 462.63 88.2177 447.222 88.2177C431.814 88.2177 419.309 88.0381 419.309 87.8286C419.309 87.619 431.8 87.4394 447.222 87.4394C462.643 87.4394 475.134 87.619 475.134 87.8286Z" fill="#FF725E"/>
<path id="Vector_152" d="M442.347 41.6681C435.783 42.187 429.195 42.187 422.631 41.6681C429.195 41.1492 435.783 41.1492 442.347 41.6681Z" fill="#FF725E"/>
<path id="Vector_153" d="M441.847 57.8781C435.284 58.397 428.695 58.397 422.131 57.8781C428.695 57.3592 435.284 57.3592 441.847 57.8781Z" fill="#FF725E"/>
<path id="Vector_154" d="M458.511 81.0482C451.947 81.5671 445.359 81.5671 438.795 81.0482C445.359 80.5293 451.947 80.5293 458.511 81.0482Z" fill="#FF725E"/>
<path id="Vector_155" d="M514.066 41.6681C514.066 41.8776 502.79 42.0572 488.881 42.0572C474.972 42.0572 463.697 41.8776 463.697 41.6681C463.697 41.4585 474.959 41.2789 488.881 41.2789C502.804 41.2789 514.066 41.4436 514.066 41.6681Z" fill="#263238"/>
<path id="Vector_156" d="M498.523 58.8211C498.523 59.0307 487.247 59.2103 473.338 59.2103C459.429 59.2103 448.154 59.0307 448.154 58.8211C448.154 58.6116 459.429 58.4319 473.338 58.4319C487.247 58.4319 498.523 58.5966 498.523 58.8211Z" fill="#263238"/>
<path id="Vector_157" d="M515.862 81.0482C515.862 81.2578 504.586 81.4374 490.677 81.4374C476.768 81.4374 465.492 81.2578 465.492 81.0482C465.492 80.8387 476.768 80.6591 490.677 80.6591C504.586 80.6591 515.862 80.8237 515.862 81.0482Z" fill="#263238"/>
<path id="Vector_158" d="M469.868 100.985C469.868 101.195 458.592 101.374 444.683 101.374C430.774 101.374 419.539 101.12 419.539 100.985C419.539 100.851 430.814 100.596 444.723 100.596C458.633 100.596 469.868 100.686 469.868 100.985Z" fill="#263238"/>
<path id="Vector_159" d="M525.571 100.985C525.571 101.195 514.296 101.374 500.387 101.374C486.478 101.374 475.202 101.195 475.202 100.985C475.202 100.776 486.478 100.596 500.387 100.596C514.296 100.596 525.571 100.686 525.571 100.985Z" fill="#263238"/>
<path id="Vector_160" d="M469.868 107.361C469.868 107.586 458.592 107.751 444.683 107.751C430.774 107.751 419.498 107.586 419.498 107.361C419.498 107.137 430.774 106.972 444.683 106.972C458.592 106.972 469.868 107.152 469.868 107.361Z" fill="#263238"/>
<path id="Vector_161" d="M472.312 46.3231C472.312 46.5326 461.036 46.7122 447.127 46.7122C433.218 46.7122 421.942 46.5326 421.942 46.3231C421.942 46.1135 433.218 45.9339 447.127 45.9339C461.036 45.9339 472.312 46.0985 472.312 46.3231Z" fill="#263238"/>
<path id="Vector_162" d="M458.889 41.728C454.576 42.2468 450.225 42.2468 445.912 41.728C450.225 41.2091 454.576 41.2091 458.889 41.728Z" fill="#455A64"/>
<path id="Vector_163" d="M432.867 75.091C428.554 75.6099 424.203 75.6099 419.89 75.091C424.203 74.5721 428.554 74.5721 432.867 75.091Z" fill="#455A64"/>
<path id="Vector_164" d="M432.57 81.0482C428.257 81.5671 423.906 81.5671 419.593 81.0482C423.906 80.5293 428.257 80.5293 432.57 81.0482Z" fill="#455A64"/>
<path id="Vector_165" d="M544.963 20.833C544.963 21.0575 513.58 21.2371 474.864 21.2371C436.149 21.2371 404.684 21.0575 404.684 20.833C404.684 20.6085 436.068 20.4438 474.81 20.4438C513.553 20.4438 544.963 20.6235 544.963 20.833Z" fill="#263238"/>
<path id="Vector_166" d="M414.205 17.4203C415.122 17.4203 415.866 16.5961 415.866 15.5793C415.866 14.5625 415.122 13.7383 414.205 13.7383C413.287 13.7383 412.544 14.5625 412.544 15.5793C412.544 16.5961 413.287 17.4203 414.205 17.4203Z" fill="white"/>
<path id="Vector_167" d="M421.335 17.4203C422.252 17.4203 422.996 16.5961 422.996 15.5793C422.996 14.5625 422.252 13.7383 421.335 13.7383C420.417 13.7383 419.674 14.5625 419.674 15.5793C419.674 16.5961 420.417 17.4203 421.335 17.4203Z" fill="white"/>
<path id="Vector_168" d="M428.465 17.4203C429.382 17.4203 430.126 16.5961 430.126 15.5793C430.126 14.5625 429.382 13.7383 428.465 13.7383C427.547 13.7383 426.804 14.5625 426.804 15.5793C426.804 16.5961 427.547 17.4203 428.465 17.4203Z" fill="white"/>
</g>
<path id="Vector_169" d="M286.416 575.719H274.695V593.44H286.416V575.719Z" fill="#455A64"/>
<path id="Vector_170" d="M351.25 368.925H455.244V363.312H351.25V368.925Z" fill="#263238"/>
<path id="Vector_171" d="M471.354 368.925L490.867 287.904H409.655L391.991 368.925H471.354Z" fill="#263238"/>
<path id="Vector_172" d="M396.866 362.803H469.409L486.289 291.646H413.368L396.866 362.803Z" fill="#F5F5F5"/>
<path id="Vector_173" d="M415.178 305.431L410.681 325.578H458.782L463.913 305.431H415.178Z" fill="#E0E0E0"/>
<path id="Vector_174" d="M453.731 302.767C453.731 302.992 445.305 303.156 434.893 303.156C424.482 303.156 416.055 302.992 416.055 302.767C416.055 302.543 424.482 302.378 434.893 302.378C445.305 302.378 453.731 302.558 453.731 302.767Z" fill="#455A64"/>
<path id="Vector_175" d="M431.842 309.278C426.788 309.797 421.703 309.797 416.65 309.278C421.703 308.759 426.788 308.759 431.842 309.278Z" fill="#263238"/>
<path id="Vector_176" d="M444.022 308.964C440.744 309.483 437.416 309.483 434.137 308.964C437.416 308.445 440.744 308.445 444.022 308.964Z" fill="#263238"/>
<path id="Vector_177" d="M457.783 312.93C457.783 313.155 448.478 313.334 437 313.334C425.522 313.334 416.218 313.155 416.218 312.93C416.218 312.706 425.522 312.541 437 312.541C448.478 312.541 457.783 312.751 457.783 312.93Z" fill="#455A64"/>
<path id="Vector_178" d="M428.83 316.268C424.341 316.79 419.815 316.79 415.326 316.268C419.815 315.746 424.341 315.746 428.83 316.268Z" fill="#FF725E"/>
<path id="Vector_179" d="M454.055 321.043C454.055 321.252 445.426 321.432 434.785 321.432C424.144 321.432 415.502 321.252 415.502 321.043C415.502 320.833 424.131 320.654 434.785 320.654C445.44 320.654 454.055 320.818 454.055 321.043Z" fill="#455A64"/>
<path id="Vector_180" d="M425.684 331.356C420.743 331.871 415.77 331.871 410.829 331.356C415.77 330.84 420.743 330.84 425.684 331.356Z" fill="#455A64"/>
<path id="Vector_181" d="M438.431 331.43C436.755 331.793 435.044 331.909 433.34 331.775C431.637 331.89 429.928 331.739 428.263 331.326C429.939 330.963 431.651 330.848 433.354 330.981C435.057 330.866 436.766 331.017 438.431 331.43Z" fill="#263238"/>
<path id="Vector_182" d="M445.629 331.041C445.629 331.266 444.657 331.43 443.468 331.43C442.28 331.43 441.321 331.266 441.321 331.041C441.321 330.817 442.294 330.652 443.468 330.652C444.643 330.652 445.629 330.832 445.629 331.041Z" fill="#263238"/>
<path id="Vector_183" d="M415.799 335.487C415.799 335.711 414.732 335.876 413.422 335.876C412.112 335.876 411.059 335.711 411.059 335.487C411.059 335.262 412.126 335.098 413.422 335.098C414.719 335.098 415.799 335.277 415.799 335.487Z" fill="#FF725E"/>
<path id="Vector_184" d="M429.978 335.487C426.22 336.006 422.419 336.006 418.662 335.487C422.419 334.968 426.22 334.968 429.978 335.487Z" fill="#263238"/>
<path id="Vector_185" d="M463.792 335.008C463.792 335.232 457.04 335.397 448.681 335.397C440.322 335.397 433.557 335.232 433.557 335.008C433.557 334.783 440.308 334.619 448.681 334.619C457.053 334.619 463.792 334.798 463.792 335.008Z" fill="#455A64"/>
<path id="Vector_186" d="M415.07 339.782C415.07 339.992 413.989 340.172 412.639 340.172C411.289 340.172 410.208 339.992 410.208 339.782C410.208 339.573 411.289 339.393 412.639 339.393C413.989 339.393 415.07 339.558 415.07 339.782Z" fill="#263238"/>
<path id="Vector_187" d="M422.524 339.693C421.589 340.079 420.584 340.212 419.594 340.082C418.598 340.211 417.59 340.078 416.65 339.693C417.591 339.316 418.598 339.183 419.594 339.303C420.584 339.182 421.587 339.315 422.524 339.693Z" fill="#263238"/>
<path id="Vector_188" d="M444.738 339.303C438.395 339.822 432.026 339.822 425.684 339.303C432.026 338.785 438.395 338.785 444.738 339.303Z" fill="#455A64"/>
<path id="Vector_189" d="M432.989 346.772C429.156 347.157 425.305 347.287 421.457 347.161C417.609 347.288 413.758 347.158 409.925 346.772C413.758 346.378 417.609 346.248 421.457 346.383C425.305 346.248 429.156 346.378 432.989 346.772Z" fill="#455A64"/>
<path id="Vector_190" d="M446.453 346.443C442.984 346.962 439.469 346.962 436.001 346.443C439.469 345.924 442.984 345.924 446.453 346.443Z" fill="#FF725E"/>
<path id="Vector_191" d="M466.452 346.443C460.682 346.962 454.883 346.962 449.113 346.443C454.883 345.924 460.682 345.924 466.452 346.443Z" fill="#263238"/>
<path id="Vector_192" d="M461.834 302.453C461.834 302.677 461.023 302.842 460.038 302.842C459.052 302.842 458.242 302.677 458.242 302.453C458.242 302.228 459.052 302.064 460.038 302.064C461.023 302.064 461.834 302.273 461.834 302.453Z" fill="#263238"/>
<path id="Vector_193" d="M425.252 299.759C422.644 300.277 419.973 300.277 417.365 299.759C419.973 299.24 422.644 299.24 425.252 299.759Z" fill="#FF725E"/>
<path id="Vector_194" d="M485.074 296.765H412.153L413.382 291.646H486.303L485.074 296.765Z" fill="#EBEBEB"/>
<path id="Vector_195" d="M416.447 295.119C416.887 295.119 417.244 294.723 417.244 294.236C417.244 293.748 416.887 293.353 416.447 293.353C416.007 293.353 415.65 293.748 415.65 294.236C415.65 294.723 416.007 295.119 416.447 295.119Z" fill="#FAFAFA"/>
<path id="Vector_196" d="M419.188 295.119C419.628 295.119 419.985 294.723 419.985 294.236C419.985 293.748 419.628 293.353 419.188 293.353C418.748 293.353 418.392 293.748 418.392 294.236C418.392 294.723 418.748 295.119 419.188 295.119Z" fill="#FAFAFA"/>
<path id="Vector_197" d="M421.93 295.119C422.37 295.119 422.726 294.723 422.726 294.236C422.726 293.748 422.37 293.353 421.93 293.353C421.49 293.353 421.133 293.748 421.133 294.236C421.133 294.723 421.49 295.119 421.93 295.119Z" fill="#FAFAFA"/>
<path id="Vector_198" d="M573.943 379.297H561.06V594.443H573.943V379.297Z" fill="#324047"/>
<path id="Vector_199" d="M412.883 378H400V593.146H412.883V378Z" fill="#324047"/>
<path id="Vector_200" d="M487.883 379H475V594.146H487.883V379Z" fill="#324047"/>
<path id="Vector_201" d="M573.943 376.468H401.039V488.292H573.943V376.468Z" fill="#324047"/>
<path id="Vector_202" d="M482 376H401V488H482V376Z" fill="#455A64"/>
<path id="Vector_203" d="M471.786 414.441C471.766 414.253 471.766 414.062 471.786 413.873V412.241C471.786 410.744 471.786 408.694 471.719 406.03C471.719 400.626 471.638 392.903 471.584 383.383L471.84 383.668L408.48 383.773L408.831 383.383V391.451C408.831 394.115 408.831 396.765 408.831 399.354C408.831 404.548 408.831 409.592 408.831 414.412L408.507 414.052L453.893 414.217L467.073 414.322H470.611H471.543H471.867H471.584H470.692H467.222L454.109 414.412L408.507 414.591H408.169V414.217C408.169 409.397 408.169 404.353 408.169 399.159V383.413L408.52 383.024L471.881 383.129H472.137V383.413C472.07 393.008 472.029 400.791 471.989 406.224C471.989 408.858 471.989 410.924 471.989 412.376V413.962C471.8 414.277 471.786 414.531 471.786 414.441Z" fill="#263238"/>
<path id="Vector_204" d="M442.793 398.92C442.617 398.071 442.189 397.312 441.578 396.765C441.249 396.51 440.87 396.348 440.472 396.293C440.074 396.238 439.67 396.292 439.296 396.45C438.845 396.643 438.457 396.981 438.182 397.422C437.908 397.862 437.759 398.384 437.756 398.92C437.763 399.454 437.913 399.975 438.187 400.414C438.461 400.854 438.847 401.194 439.296 401.39C439.672 401.541 440.076 401.591 440.473 401.534C440.87 401.476 441.249 401.314 441.578 401.06C442.185 400.508 442.611 399.751 442.793 398.905C442.793 398.905 442.915 399.174 442.793 399.668C442.684 400.386 442.344 401.035 441.834 401.494C441.448 401.844 440.986 402.079 440.495 402.176C440.003 402.273 439.498 402.229 439.026 402.048C438.435 401.824 437.922 401.4 437.558 400.836C437.195 400.273 437 399.597 437 398.905C437 398.212 437.195 397.537 437.558 396.974C437.922 396.41 438.435 395.986 439.026 395.762C439.496 395.579 440.002 395.533 440.493 395.627C440.985 395.721 441.446 395.953 441.834 396.301C442.344 396.76 442.684 397.409 442.793 398.127C442.928 398.651 442.834 398.92 442.793 398.92Z" fill="#263238"/>
<path id="Vector_205" d="M471.786 448.643C471.767 448.449 471.767 448.253 471.786 448.059V446.427C471.786 444.931 471.786 442.88 471.719 440.216C471.719 434.828 471.638 427.104 471.584 417.57L471.84 417.854L408.48 417.974L408.831 417.585V425.652C408.831 428.332 408.831 430.966 408.831 433.57C408.831 438.764 408.831 443.808 408.831 448.628L408.507 448.254L453.893 448.433L467.073 448.538H470.611H471.543H471.867H471.584H470.692H467.222L454.109 448.643L408.507 448.822H408.169V448.448C408.169 443.629 408.169 438.584 408.169 433.391V417.6C408.088 417.6 408.831 416.851 408.52 417.196L471.881 417.315H472.137V417.525C472.07 427.134 472.029 434.917 471.989 440.351C471.989 442.985 471.989 445.035 471.989 446.502V448.074C471.8 448.478 471.786 448.658 471.786 448.643Z" fill="#263238"/>
<path id="Vector_206" d="M442.793 433.106C442.603 432.276 442.177 431.536 441.578 430.996C441.218 430.711 440.795 430.541 440.354 430.505C439.913 430.468 439.471 430.566 439.077 430.788C438.683 431.011 438.352 431.348 438.119 431.765C437.886 432.182 437.76 432.661 437.756 433.151C437.759 433.687 437.908 434.209 438.182 434.649C438.457 435.09 438.845 435.428 439.296 435.621C439.67 435.779 440.074 435.833 440.472 435.778C440.87 435.723 441.249 435.561 441.578 435.306C442.187 434.757 442.614 433.999 442.793 433.151C442.793 433.151 442.915 433.421 442.793 433.914C442.684 434.632 442.344 435.281 441.834 435.741C441.448 436.09 440.986 436.325 440.495 436.422C440.003 436.519 439.498 436.475 439.026 436.294C438.435 436.07 437.922 435.646 437.558 435.082C437.195 434.519 437 433.844 437 433.151C437 432.459 437.195 431.783 437.558 431.22C437.922 430.656 438.435 430.232 439.026 430.008C439.498 429.827 440.003 429.783 440.495 429.88C440.986 429.977 441.448 430.212 441.834 430.562C442.344 431.021 442.684 431.67 442.793 432.388C442.928 432.837 442.834 433.106 442.793 433.106Z" fill="#263238"/>
<path id="Vector_207" d="M471.786 482.829C471.766 482.64 471.766 482.449 471.786 482.26V480.629C471.786 479.132 471.786 477.081 471.719 474.417C471.719 469.014 471.638 461.29 471.584 451.771L471.84 452.055L408.48 452.16L408.831 451.771V459.839C408.831 462.503 408.831 465.152 408.831 467.741C408.831 472.935 408.831 477.979 408.831 482.799L408.507 482.44L453.893 482.604L467.073 482.709H470.611H471.543H471.867H471.584H470.692H467.222L454.109 482.799L408.507 482.979H408.169V482.604C408.169 477.785 408.169 472.741 408.169 467.547V451.801L408.52 451.412L471.881 451.516H472.137V451.801C472.07 461.395 472.029 469.178 471.989 474.612C471.989 477.246 471.989 479.312 471.989 480.763V482.35C471.8 482.664 471.786 482.844 471.786 482.829Z" fill="#263238"/>
<path id="Vector_208" d="M442.793 467.307C442.617 466.458 442.189 465.7 441.578 465.152C441.249 464.897 440.87 464.736 440.472 464.681C440.074 464.626 439.67 464.68 439.296 464.838C438.845 465.03 438.457 465.369 438.182 465.809C437.908 466.25 437.759 466.772 437.756 467.307C437.76 467.798 437.886 468.277 438.119 468.694C438.352 469.11 438.683 469.448 439.077 469.67C439.471 469.892 439.913 469.991 440.354 469.954C440.795 469.917 441.218 469.748 441.578 469.463C442.185 468.911 442.611 468.154 442.793 467.307C442.793 467.307 442.915 467.577 442.793 468.071C442.684 468.788 442.344 469.438 441.834 469.897C441.448 470.247 440.986 470.481 440.495 470.578C440.003 470.675 439.498 470.631 439.026 470.451C438.435 470.226 437.922 469.802 437.558 469.239C437.195 468.675 437 468 437 467.307C437 466.615 437.195 465.94 437.558 465.376C437.922 464.813 438.435 464.389 439.026 464.164C439.496 463.982 440.002 463.935 440.493 464.03C440.985 464.124 441.446 464.356 441.834 464.703C442.344 465.162 442.684 465.811 442.793 466.529C442.928 467.038 442.834 467.307 442.793 467.307Z" fill="#263238"/>
<path id="Vector_209" d="M183.221 379.297H170.338V594.383H183.221V379.297Z" fill="#455A64"/>
<path id="box" d="M285.891 579.311L170.338 579.206V376.468H285.891V579.311Z" fill="#455A64"/>
<path id="Vector_210" d="M580.223 368.67H164.761V379.297H580.223V368.67Z" fill="#263238"/>
<path id="Vector_211" d="M223.179 368.67C223.179 368.88 210.796 369.059 195.523 369.059C180.25 369.059 167.867 368.88 167.867 368.67C167.867 368.461 180.25 368.281 195.523 368.281C210.796 368.281 223.179 368.446 223.179 368.67Z" fill="#455A64"/>
<path id="Vector_212" d="M344.66 583.906L344.984 568.534L318.989 567.666L318.301 590.118L319.908 590.282C327.065 590.971 356.368 593.186 361.189 591.779C366.591 590.163 344.66 583.906 344.66 583.906Z" fill="#455A64"/>
<g id="Group" opacity="0.4">
<path id="Vector_213" opacity="0.4" d="M355.355 587.393C355.355 587.393 363.039 590.118 362.026 591.51C361.014 592.902 331.345 591.869 318.301 590.163V589.519L352.911 591.016C352.911 591.016 353.802 587.408 355.355 587.393Z" fill="white"/>
</g>
<path id="Vector_214" d="M317.95 589.489H318.395L319.746 589.624L324.458 590.013C328.442 590.312 333.911 590.627 340.042 590.851C346.173 591.076 351.655 591.12 355.652 591.106H360.379H361.729H362.175H361.729H360.379H355.652C351.669 591.106 346.2 590.956 340.055 590.746C333.911 590.537 328.456 590.252 324.472 590.013L319.746 589.743H318.395L317.95 589.489Z" fill="#263238"/>
<path id="Vector_215" d="M352.938 591.465C353.169 590.603 353.491 589.774 353.897 588.995C354.386 588.282 354.943 587.63 355.558 587.049C354.77 587.406 354.098 588.019 353.63 588.807C353.163 589.595 352.921 590.522 352.938 591.465Z" fill="#263238"/>
<path id="Vector_216" d="M345.39 586.9C345.457 586.9 345.849 586.466 346.24 585.822C346.632 585.178 346.902 584.595 346.834 584.55C346.767 584.505 346.375 584.969 345.984 585.627C345.592 586.286 345.322 586.84 345.39 586.9Z" fill="#263238"/>
<path id="Vector_217" d="M343.323 585.597C343.323 585.597 343.796 585.373 344.255 584.939C344.714 584.505 345.038 584.101 344.984 584.026C344.93 583.951 344.512 584.25 344.053 584.684C343.593 585.118 343.269 585.523 343.323 585.597Z" fill="#263238"/>
<path id="Vector_218" d="M342.068 582.828C342.498 583.012 342.958 583.093 343.418 583.068C343.87 583.144 344.333 583.103 344.768 582.948C344.338 582.767 343.878 582.686 343.418 582.709C342.675 582.679 342.068 582.724 342.068 582.828Z" fill="#263238"/>
<path id="Vector_219" d="M341.649 580.898C342.091 581.234 342.612 581.422 343.148 581.436C343.674 581.55 344.22 581.488 344.714 581.257C344.208 581.142 343.692 581.086 343.175 581.092C342.674 580.964 342.163 580.899 341.649 580.898Z" fill="#263238"/>
<path id="Vector_220" d="M346.348 584.415C346.898 584.519 347.46 584.519 348.009 584.415C348.617 584.348 349.217 584.223 349.805 584.041C350.16 583.937 350.504 583.792 350.832 583.607C351.034 583.49 351.189 583.292 351.264 583.053C351.296 582.917 351.291 582.774 351.25 582.641C351.209 582.508 351.134 582.391 351.034 582.305C350.406 581.936 349.682 581.82 348.986 581.975C348.289 582.131 347.663 582.549 347.212 583.158C346.947 583.519 346.749 583.937 346.632 584.385C346.602 584.548 346.602 584.716 346.632 584.879C346.825 584.334 347.099 583.828 347.442 583.382C347.828 582.909 348.33 582.571 348.887 582.409C349.553 582.192 350.268 582.267 350.886 582.619C351.142 582.843 351.021 583.188 350.724 583.382C350.42 583.548 350.104 583.683 349.778 583.786C349.208 583.982 348.626 584.132 348.036 584.235C347.05 584.37 346.348 584.355 346.348 584.415Z" fill="#263238"/>
<path id="Vector_221" d="M346.767 584.52C346.983 584.142 347.064 583.688 346.996 583.247C346.961 582.757 346.817 582.284 346.578 581.87C346.446 581.593 346.254 581.356 346.017 581.184C345.781 581.011 345.509 580.907 345.227 580.883C345.056 580.916 344.903 581.022 344.802 581.179C344.701 581.336 344.66 581.53 344.687 581.721C344.721 582.019 344.813 582.305 344.957 582.559C345.161 582.975 345.415 583.358 345.714 583.696C345.965 584.037 346.284 584.308 346.645 584.49C346.645 584.49 346.321 584.146 345.876 583.532C345.62 583.185 345.398 582.808 345.214 582.409C344.998 582.005 344.849 581.302 345.281 581.227C345.714 581.152 346.105 581.676 346.348 582.05C346.578 582.417 346.73 582.837 346.794 583.277C346.824 583.691 346.815 584.108 346.767 584.52Z" fill="#263238"/>
<path id="Vector_222" d="M318.692 581.616C318.692 581.691 319.448 581.616 320.61 581.766C322.138 581.997 323.576 582.707 324.753 583.813C325.93 584.918 326.797 586.374 327.254 588.007C327.429 588.692 327.573 589.387 327.686 590.088C327.72 589.895 327.72 589.697 327.686 589.504C327.64 588.999 327.559 588.498 327.443 588.007C327.024 586.296 326.147 584.766 324.927 583.619C323.707 582.473 322.201 581.764 320.61 581.586C320.134 581.533 319.654 581.533 319.178 581.586C319.016 581.574 318.853 581.584 318.692 581.616Z" fill="#263238"/>
<path id="Vector_223" d="M321.717 569.717C321.49 571.678 321.359 573.652 321.326 575.629C321.201 577.622 321.179 579.62 321.258 581.616C321.486 579.655 321.617 577.681 321.65 575.704C321.782 573.711 321.805 571.712 321.717 569.717Z" fill="#263238"/>
<path id="Vector_224" d="M331.075 587.543C332.308 587.911 333.58 588.097 334.856 588.097C336.129 588.206 337.408 588.135 338.665 587.887C338.665 587.783 336.963 587.887 334.87 587.753C332.777 587.618 331.089 587.453 331.075 587.543Z" fill="#263238"/>
<path id="Vector_225" d="M325.984 587.364C325.984 587.364 326.106 587.768 326.268 588.202C326.43 588.636 326.511 589.04 326.606 589.025C326.7 589.01 326.754 588.576 326.606 588.082C326.457 587.588 326.038 587.304 325.984 587.364Z" fill="#263238"/>
<path id="Vector_226" d="M324.094 584.654C324.094 584.654 324.188 585.029 324.445 585.343C324.702 585.657 324.972 585.852 325.039 585.777C325.107 585.702 324.945 585.418 324.674 585.103C324.404 584.789 324.202 584.595 324.094 584.654Z" fill="#263238"/>
<path id="Vector_227" d="M321.393 583.352C321.393 583.457 321.758 583.457 322.136 583.622C322.514 583.786 322.784 584.011 322.851 583.951C322.919 583.891 322.716 583.487 322.244 583.292C321.771 583.098 321.393 583.263 321.393 583.352Z" fill="#263238"/>
<path id="Vector_228" d="M319.475 582.709C319.475 582.798 319.597 582.948 319.8 583.053C320.002 583.158 320.218 583.158 320.245 583.053C320.272 582.948 320.137 582.798 319.921 582.709C319.705 582.619 319.516 582.619 319.475 582.709Z" fill="#263238"/>
<g id="Group_2" opacity="0.3">
<path id="Vector_229" opacity="0.3" d="M318.746 580.853L344.728 581.257L344.782 577.784L318.598 579.012L318.746 580.853Z" fill="black"/>
</g>
<path id="Vector_230" d="M385.658 586.301V570.914L359.65 570.809L359.501 593.261L361.108 593.381C368.279 593.845 397.569 595.207 402.417 593.62C407.737 591.899 385.658 586.301 385.658 586.301Z" fill="#455A64"/>
<g id="Group_3" opacity="0.4">
<path id="Vector_231" opacity="0.4" d="M396.434 589.459C396.434 589.459 404.172 591.974 403.186 593.381C402.2 594.788 372.532 594.653 359.447 593.381V592.737L394.071 593.231C394.071 593.231 394.922 589.534 396.434 589.459Z" fill="white"/>
</g>
<path id="Vector_232" d="M359.096 592.647H359.542L360.824 592.737L365.551 592.991C369.534 593.171 375.004 593.336 381.148 593.366C387.292 593.396 392.761 593.366 396.758 593.171L401.485 592.977L402.768 592.887H403.213H401.485L396.758 592.962C392.707 592.962 387.238 593.096 381.148 593.066C375.058 593.036 369.548 592.902 365.551 592.797L360.824 592.647H359.096Z" fill="#263238"/>
<path id="Vector_233" d="M394.125 593.62C394.328 592.749 394.627 591.91 395.016 591.12C395.485 590.385 396.028 589.712 396.637 589.115C395.824 589.442 395.15 590.093 394.746 590.941C394.243 591.716 394.021 592.672 394.125 593.62Z" fill="#263238"/>
<path id="Vector_234" d="M386.468 589.265C386.536 589.265 386.9 588.816 387.292 588.157C387.684 587.498 387.913 586.93 387.846 586.87C387.778 586.81 387.4 587.319 387.022 587.977C386.644 588.636 386.387 589.205 386.468 589.265Z" fill="#263238"/>
<path id="Vector_235" d="M384.362 588.022C384.362 588.022 384.834 587.783 385.28 587.349C385.726 586.915 386.05 586.481 385.996 586.406C385.942 586.331 385.523 586.645 385.077 587.079C384.632 587.513 384.308 587.947 384.362 588.022Z" fill="#263238"/>
<path id="Vector_236" d="M383.038 585.298C383.471 585.467 383.931 585.534 384.389 585.493C384.843 585.554 385.305 585.503 385.739 585.343C385.739 585.238 385.145 585.148 384.389 585.148C383.633 585.148 383.038 585.163 383.038 585.298Z" fill="#263238"/>
<path id="Vector_237" d="M382.593 583.367C383.041 583.695 383.568 583.867 384.105 583.861C384.635 583.978 385.186 583.899 385.672 583.637C385.162 583.55 384.647 583.51 384.132 583.517C383.624 583.416 383.109 583.366 382.593 583.367Z" fill="#263238"/>
<path id="Vector_238" d="M387.36 586.75C387.908 586.865 388.472 586.865 389.021 586.75C389.627 586.676 390.225 586.53 390.803 586.316C391.161 586.214 391.505 586.063 391.829 585.867C392.03 585.737 392.179 585.529 392.248 585.283C392.273 585.146 392.261 585.005 392.216 584.875C392.171 584.745 392.093 584.632 391.991 584.55C391.355 584.199 390.629 584.105 389.937 584.282C389.245 584.46 388.63 584.898 388.197 585.523C387.945 585.89 387.757 586.306 387.643 586.75C387.608 586.917 387.608 587.091 387.643 587.259C387.823 586.716 388.083 586.21 388.413 585.762C388.793 585.275 389.289 584.917 389.844 584.729C390.5 584.491 391.213 584.55 391.829 584.894C392.099 585.118 391.991 585.463 391.694 585.657C391.399 585.839 391.086 585.984 390.763 586.091C390.198 586.301 389.62 586.466 389.034 586.585C387.994 586.66 387.36 586.66 387.36 586.75Z" fill="#263238"/>
<path id="Vector_239" d="M387.792 586.855C387.988 586.463 388.054 586.008 387.981 585.568C387.935 585.08 387.782 584.612 387.535 584.205C387.397 583.938 387.201 583.712 386.966 583.548C386.73 583.383 386.462 583.285 386.185 583.263C386.1 583.28 386.02 583.317 385.948 583.369C385.876 583.422 385.814 583.49 385.767 583.57C385.719 583.649 385.686 583.738 385.67 583.832C385.653 583.926 385.654 584.022 385.672 584.116C385.71 584.41 385.807 584.691 385.955 584.939C386.172 585.349 386.435 585.726 386.738 586.061C387.252 586.63 387.67 586.855 387.684 586.81C387.697 586.765 387.36 586.481 386.9 585.897C386.635 585.548 386.4 585.172 386.198 584.774C385.969 584.385 385.82 583.682 386.198 583.607C386.576 583.532 387.036 584.026 387.292 584.385C387.529 584.745 387.691 585.159 387.765 585.597C387.806 586.015 387.815 586.436 387.792 586.855Z" fill="#263238"/>
<path id="Vector_240" d="M359.65 584.774C359.65 584.774 360.392 584.699 361.567 584.864C363.098 585.06 364.549 585.729 365.753 586.795C366.949 587.873 367.852 589.298 368.36 590.911C368.751 592.138 368.792 592.976 368.846 592.962C368.872 592.768 368.872 592.571 368.846 592.378C368.796 591.871 368.705 591.37 368.576 590.881C368.115 589.184 367.201 587.681 365.955 586.569C364.709 585.458 363.189 584.791 361.594 584.654C361.118 584.606 360.639 584.606 360.163 584.654C359.825 584.699 359.65 584.744 359.65 584.774Z" fill="#263238"/>
<path id="Vector_241" d="M362.391 572.785C362.202 574.774 362.121 576.773 362.148 578.772C362.056 580.767 362.079 582.767 362.215 584.759C362.395 582.77 362.477 580.771 362.458 578.772C362.55 576.777 362.527 574.777 362.391 572.785Z" fill="#263238"/>
<path id="Vector_242" d="M372.168 590.342C373.41 590.668 374.686 590.814 375.962 590.776C377.239 590.847 378.519 590.737 379.77 590.447C379.77 590.357 378.055 590.447 375.962 590.447C373.869 590.447 372.181 590.237 372.168 590.342Z" fill="#263238"/>
<path id="Vector_243" d="M367.063 590.297C367.063 590.372 367.212 590.701 367.374 591.135C367.536 591.569 367.644 591.959 367.738 591.944C367.833 591.929 367.874 591.495 367.671 591.001C367.468 590.507 367.131 590.237 367.063 590.297Z" fill="#263238"/>
<path id="Vector_244" d="M365.159 587.648C365.092 587.648 365.267 588.007 365.537 588.322C365.807 588.636 366.064 588.816 366.131 588.741C366.199 588.666 366.023 588.381 365.753 588.067C365.483 587.753 365.227 587.573 365.159 587.648Z" fill="#263238"/>
<path id="Vector_245" d="M362.418 586.421C362.418 586.525 362.782 586.525 363.161 586.675C363.539 586.825 363.822 587.049 363.89 586.989C363.957 586.93 363.741 586.525 363.269 586.346C362.796 586.166 362.391 586.331 362.418 586.421Z" fill="#263238"/>
<path id="Vector_246" d="M360.46 585.837C360.46 585.927 360.581 586.076 360.797 586.181C361.013 586.286 361.216 586.271 361.243 586.181C361.27 586.091 361.122 585.942 360.905 585.852C360.689 585.762 360.554 585.747 360.46 585.837Z" fill="#263238"/>
<g id="Group_4" opacity="0.3">
<path id="Vector_247" opacity="0.3" d="M359.69 583.996L385.672 583.652L385.645 580.179L359.488 582.17L359.69 583.996Z" fill="black"/>
</g>
<g id="Hand">
<g id="Vector_248">
<path fill-rule="evenodd" clip-rule="evenodd" d="M365.144 346.247C346.242 356.602 345.269 364.087 347.144 366.536C350.906 368.897 355.793 369.161 361.204 368.782L418.485 364.777L417.485 350.477L365.144 346.247Z" fill="#FFBE9D"/>
<path d="M328.81 325.444L341.517 359.191C342.844 362.719 344.77 365.045 347.144 366.536C345.269 364.087 346.242 356.602 365.144 346.247L350.144 312.747L328.81 325.444Z" fill="#FFBE9D"/>
</g>
<path id="Vector_249" d="M422.806 347.005L426.981 344.262C426.981 344.262 430.801 333.454 431.92 333.784C433.04 334.115 433.629 337.136 432.151 342.066L437.81 339.665C437.81 339.665 451.02 345.202 450.544 346.144C450.068 347.087 449.21 349.304 446.329 347.99C443.449 346.676 439.659 345.058 439.659 345.058L433.049 347.867L441.935 348.375L450.942 356.184C450.942 356.184 448.425 358.738 445.879 356.494L424.895 363.604L418.22 364.631L416.985 350.513L422.806 347.005Z" fill="#FFBE9D"/>
<path id="Vector_250" d="M442.209 362.878C442.115 362.878 441.696 362.204 440.859 361.231C440.381 360.673 439.83 360.199 439.225 359.824C438.462 359.42 437.637 359.181 436.794 359.121C434.511 358.948 432.248 358.522 430.042 357.848C432.329 357.762 434.619 357.933 436.875 358.357C437.82 358.421 438.742 358.713 439.576 359.21C440.225 359.645 440.797 360.208 441.264 360.872C441.734 361.436 442.06 362.128 442.209 362.878Z" fill="#EB996E"/>
</g>
<path id="Vector_251" d="M441.699 363.865C441.605 363.865 441.537 363.357 440.916 363.207C440.295 363.057 439.242 362.938 438.215 362.818C436.892 362.794 435.573 362.649 434.272 362.384C435.573 361.881 436.969 361.762 438.323 362.039C439.283 362.132 440.231 362.348 441.146 362.683C441.306 362.749 441.45 362.854 441.567 362.992C441.684 363.13 441.771 363.295 441.821 363.476C441.821 363.746 441.74 363.88 441.699 363.865Z" fill="#EB996E"/>
<path id="Vector_252" d="M279.342 180.017L276.195 250.635L303.473 253.478L304.986 236.415C304.986 236.415 314.601 239.05 317.517 229.186C319.394 222.884 321.055 173.521 321.055 173.521L279.342 180.017Z" fill="#FFBE9D"/>
<path id="Vector_253" d="M323.405 181.693C324.161 188.309 315.829 192.171 315.829 192.171L314.371 207.812C313.067 207.709 311.759 207.709 310.455 207.812C311.157 200.478 302.623 201.915 301.758 206.914C300.894 211.913 305.81 214.937 305.81 214.937C302.407 220.729 301.016 223.798 296.181 229.231C290.942 235.113 288.079 235.592 282.677 235.412L276.722 235.113C276.722 235.113 274.588 229.47 273.036 216.134C272.293 209.728 267.769 201.316 269.065 190.898C272.711 161.277 298.315 164.406 298.315 164.406C311.697 164.72 321.65 166.366 323.405 181.693Z" fill="#263238"/>
<path id="Vector_254" d="M303.838 165.169C309.618 165.334 315.613 165.842 320.691 168.911C325.768 171.979 329.684 178.311 328.645 184.612L325.755 185.196L324.566 182.831C324.566 184.088 324.566 185.345 324.566 186.603L319.489 188.174C318.725 183.369 317.198 178.752 314.979 174.539" fill="#263238"/>
<path id="Vector_255" d="M280.422 197.664C280.221 197.323 280.071 196.949 279.977 196.556C279.649 195.509 279.405 194.432 279.247 193.338C278.699 189.705 278.927 185.98 279.915 182.462C280.902 178.945 282.621 175.733 284.932 173.087C285.614 172.28 286.359 171.544 287.161 170.887C287.441 170.615 287.76 170.397 288.106 170.243C288.173 170.348 286.931 171.38 285.297 173.446C283.174 176.137 281.579 179.286 280.611 182.696C279.682 186.118 279.397 189.715 279.774 193.263C280.031 196.002 280.544 197.619 280.422 197.664Z" fill="#455A64"/>
<path id="Vector_256" d="M285.797 195.194C285.273 194.056 284.913 192.834 284.73 191.572C284.131 188.557 283.953 185.457 284.203 182.382C284.438 179.296 285.094 176.268 286.148 173.401C286.528 172.19 287.08 171.053 287.782 170.033C286.328 173.999 285.361 178.162 284.905 182.412C284.687 186.698 284.987 190.996 285.797 195.194Z" fill="#455A64"/>
<path id="Vector_257" d="M320.623 184.238C320.488 184.238 320.259 182.412 319.151 179.747C317.729 176.235 315.449 173.232 312.569 171.08C309.689 168.927 306.324 167.709 302.852 167.564C300.151 167.429 298.544 167.878 298.517 167.743C298.873 167.544 299.257 167.413 299.652 167.354C300.71 167.122 301.787 167.011 302.866 167.025C306.47 167.019 309.994 168.213 312.979 170.452C315.964 172.691 318.275 175.872 319.611 179.583C320.018 180.688 320.322 181.836 320.515 183.01C320.612 183.41 320.649 183.825 320.623 184.238Z" fill="#455A64"/>
<path id="Vector_258" d="M281.273 159.451C282.798 159.809 284.175 160.714 285.189 162.026C286.373 163.151 287.182 164.685 287.485 166.381C287.296 166.471 286.418 164.465 284.689 162.565C282.961 160.664 281.178 159.676 281.273 159.451Z" fill="#263238"/>
<path id="Vector_259" d="M287.633 159.481C287.836 159.556 287.417 161.143 287.498 163.103C287.579 165.064 288.065 166.591 287.876 166.696C287.117 165.706 286.73 164.43 286.796 163.133C286.635 161.841 286.935 160.531 287.633 159.481Z" fill="#455A64"/>
<path id="Vector_260" d="M323.338 315.34L327.78 332.059L356.058 317.885C355.045 314.382 350.359 298.786 341.419 274.029C338.972 267.242 334.989 261.269 329.855 256.683C324.72 252.098 318.606 249.056 312.102 247.851C303.187 246.047 294.155 245.046 285.095 244.857C269.241 245.052 245.933 256.038 242.773 273.296C240.37 286.437 242.679 309.652 242.679 337.852L244.745 391.735L325.984 394.729L323.338 315.34Z" fill="#6C63FF"/>
<g id="Group_5" opacity="0.3">
<path id="Vector_261" opacity="0.3" d="M242.719 325.398C252.604 327.644 262.746 325.398 272.82 324.725C278.923 324.321 285.702 323.587 290.537 327.718C294.372 331.011 295.938 336.564 297.019 341.803C301.232 361.755 301.988 375.136 302.933 395.597L254.036 398.89L242.719 325.398Z" fill="black"/>
</g>
<path id="Vector_262" d="M316.043 268.865C316.043 269.09 299.857 269.254 279.902 269.254C259.948 269.254 243.773 269.09 243.773 268.865C243.773 268.641 259.948 268.476 279.902 268.476C299.857 268.476 316.043 268.656 316.043 268.865Z" fill="#FAFAFA"/>
<path id="Vector_263" d="M316.966 283.998C316.966 284.207 300.039 284.387 279.181 284.387C258.323 284.387 241.396 284.207 241.396 283.998C241.396 283.788 258.303 283.609 279.181 283.609C300.059 283.609 316.966 283.788 316.966 283.998Z" fill="#FAFAFA"/>
<path id="Vector_264" d="M320.456 302.977C320.456 303.201 302.879 303.366 281.196 303.366C259.513 303.366 241.936 303.201 241.936 302.977C241.936 302.752 259.513 302.588 281.196 302.588C302.879 302.588 320.456 302.767 320.456 302.977Z" fill="#FAFAFA"/>
<path id="Vector_265" d="M322.743 323.453C322.743 323.662 315.006 323.842 305.485 323.842C295.965 323.842 288.214 323.662 288.214 323.453C288.214 323.243 295.938 323.063 305.485 323.063C315.033 323.063 322.743 323.228 322.743 323.453Z" fill="#FAFAFA"/>
<path id="Vector_266" d="M324.323 345.68C324.323 345.889 316.221 345.994 306.255 345.904C296.289 345.814 288.187 345.575 288.187 345.35C288.187 345.126 296.289 345.036 306.255 345.126C316.221 345.216 324.323 345.425 324.323 345.68Z" fill="#FAFAFA"/>
<path id="Vector_267" d="M325.107 363.716C324.639 363.81 324.162 363.835 323.689 363.791L319.813 363.701C316.545 363.626 312.035 363.521 307.052 363.521C302.069 363.521 297.599 363.611 294.291 363.686L290.415 363.776C289.94 363.844 289.459 363.844 288.984 363.776C289.445 363.626 289.921 363.546 290.402 363.536C291.306 363.431 292.63 363.327 294.264 363.222C297.532 362.997 302.055 362.818 307.052 362.818C312.048 362.818 316.572 363.012 319.827 363.237C321.461 363.342 322.784 363.461 323.702 363.566C324.174 363.553 324.646 363.603 325.107 363.716Z" fill="#FAFAFA"/>
<path id="Vector_268" d="M324.85 378.324C324.85 378.534 316.883 378.713 307.052 378.713C297.221 378.713 289.267 378.534 289.267 378.324C289.267 378.115 297.221 377.935 307.052 377.935C316.883 377.935 324.85 378.1 324.85 378.324Z" fill="#FAFAFA"/>
<path id="Vector_269" d="M327.267 254.032C327.267 254.257 311.63 254.421 292.346 254.421C273.063 254.421 257.411 254.257 257.411 254.032C257.411 253.808 273.049 253.643 292.346 253.643C311.643 253.643 327.267 253.823 327.267 254.032Z" fill="#FAFAFA"/>
<path id="Vector_270" d="M325.444 256.846C325.444 256.936 324.634 256.981 323.284 257.565C321.41 258.476 319.791 259.928 318.598 261.771C316.875 264.538 315.905 267.795 315.802 271.155C315.7 275.289 315.989 279.423 316.667 283.489C317.803 290.937 319.318 298.308 321.204 305.566C321.866 308.275 322.419 310.506 322.838 312.197C323.066 313 323.241 313.821 323.365 314.652C323.041 313.891 322.779 313.099 322.581 312.287C322.122 310.79 321.474 308.5 320.718 305.716C318.709 298.469 317.13 291.084 315.992 283.609C315.314 279.482 315.043 275.287 315.181 271.095C315.322 267.615 316.383 264.258 318.233 261.441C319.498 259.552 321.229 258.107 323.216 257.28C323.755 257.077 324.312 256.937 324.877 256.861C325.064 256.826 325.256 256.821 325.444 256.846Z" fill="#263238"/>
<path id="Vector_271" d="M355.153 313.604C353.894 314.578 352.561 315.43 351.169 316.148C348.657 317.645 345.133 319.516 341.19 321.492C337.247 323.468 333.628 325.114 330.981 326.237C329.574 326.911 328.12 327.456 326.633 327.868C327.969 327.042 329.36 326.327 330.792 325.728C333.385 324.47 336.977 322.734 340.906 320.788C344.836 318.843 348.374 316.972 350.94 315.654C352.3 314.866 353.708 314.181 355.153 313.604Z" fill="#263238"/>
<path id="Vector_272" d="M269.822 392.618L366.888 396.42C374.461 396.721 381.627 400.299 386.848 406.388C392.068 412.477 394.928 420.591 394.814 428.99L390.763 582.649L353.262 581.272L356.058 437.402L269.808 434.887L269.822 392.618Z" fill="#263238"/>
<path id="Vector_273" d="M229.715 392.618L326.795 396.42C334.368 396.721 341.534 400.299 346.755 406.388C351.975 412.477 354.835 420.591 354.721 428.99L350.67 582.649L312.67 579.311L315.992 437.402L229.742 434.887L229.715 392.618Z" fill="#263238"/>
<path id="leg" d="M339.353 586.66H338.003C338.101 580.678 337.123 574.733 335.126 569.174C333.128 563.616 330.151 558.554 326.369 554.284C322.587 550.015 318.075 546.624 313.097 544.309C308.119 541.994 302.775 540.801 297.376 540.801C291.978 540.801 286.634 541.994 281.656 544.309C276.678 546.624 272.166 550.015 268.384 554.284C264.601 558.554 261.624 563.616 259.627 569.174C257.63 574.733 256.651 580.678 256.75 586.66H255.399C255.299 580.48 256.311 574.339 258.376 568.597C260.441 562.855 263.517 557.627 267.424 553.217C271.332 548.807 275.994 545.304 281.136 542.913C286.279 540.522 291.8 539.291 297.376 539.291C302.953 539.291 308.474 540.522 313.617 542.913C318.759 545.304 323.42 548.807 327.328 553.217C331.236 557.627 334.312 562.855 336.377 568.597C338.441 574.339 339.453 580.48 339.353 586.66Z" fill="#2B2B2B"/>
<path id="Vector_274" d="M302 445H293V541H302V445Z" fill="#2B2B2B"/>
<path id="Vector_275" d="M212.7 325.368V418.707C212.7 424.586 214.807 430.225 218.558 434.382C222.308 438.539 227.395 440.874 232.699 440.874H288.781V325.368C288.781 324.071 288.551 322.787 288.103 321.588C287.655 320.39 286.998 319.3 286.171 318.383C285.343 317.466 284.361 316.738 283.279 316.242C282.198 315.745 281.039 315.49 279.869 315.49H221.613C220.442 315.49 219.283 315.745 218.202 316.242C217.121 316.738 216.138 317.466 215.311 318.383C214.483 319.3 213.826 320.39 213.379 321.588C212.931 322.787 212.7 324.071 212.7 325.368Z" fill="#6B6898"/>
<path id="Vector_276" d="M364.241 448.433H227.689C227.689 444.066 229.254 439.879 232.04 436.791C234.826 433.703 238.604 431.969 242.544 431.969H349.454C353.394 431.969 357.172 433.703 359.958 436.791C362.743 439.879 364.308 444.066 364.308 448.433H364.241Z" fill="#6B6898"/>
<path id="Vector_277" d="M288.781 429.828C288.798 430.067 288.798 430.308 288.781 430.547C288.77 431.232 288.693 431.915 288.552 432.582C288.101 434.696 287.105 436.618 285.686 438.114C284.266 439.611 282.484 440.617 280.557 441.009C278.764 441.222 276.959 441.297 275.156 441.234H262.881C254.171 441.234 246.284 441.234 240.586 441.144L233.834 441.039L231.997 440.964C231.78 440.961 231.563 440.936 231.349 440.889C231.56 440.823 231.778 440.792 231.997 440.8L233.834 440.725L240.586 440.59C246.284 440.515 254.171 440.47 262.881 440.455H275.142C276.912 440.534 278.684 440.489 280.449 440.321C281.945 440.038 283.36 439.372 284.581 438.375C286.387 436.9 287.687 434.789 288.268 432.388C288.741 430.816 288.7 429.828 288.781 429.828Z" fill="#263238"/>
<path id="Vector_278" d="M305.972 448.762C303.191 449.156 300.386 449.286 297.586 449.152C294.79 449.286 291.989 449.156 289.213 448.762C291.99 448.378 294.79 448.248 297.586 448.373C300.386 448.247 303.191 448.378 305.972 448.762Z" fill="#263238"/>
<path id="Vector_279" d="M347.51 441.683C347.109 440.217 346.828 438.714 346.672 437.192C346.213 434.319 345.606 430.143 344.876 424.994C344.147 419.845 343.647 413.603 341.082 407.422C339.737 404.206 338.036 401.189 336.018 398.441C333.811 395.525 331.248 392.966 328.402 390.837C325.567 388.684 322.452 387.024 319.165 385.913C316.104 384.83 312.923 384.221 309.712 384.102C303.541 383.952 297.896 383.982 293.197 383.877C288.498 383.773 284.676 383.728 282.043 383.638C280.686 383.673 279.33 383.567 277.991 383.324C279.331 383.091 280.687 382.991 282.043 383.024C284.676 382.934 288.484 382.845 293.197 382.785C297.91 382.725 303.487 382.59 309.753 382.68C316.677 382.86 323.409 385.245 329.144 389.55C332.105 391.752 334.762 394.419 337.031 397.468C339.118 400.332 340.866 403.481 342.23 406.838C342.54 407.631 342.797 408.454 343.08 409.248L343.485 410.445C343.58 410.849 343.688 411.253 343.783 411.657C343.985 412.451 344.188 413.244 344.377 414.022C344.566 414.801 344.633 415.594 344.768 416.357C345.241 419.426 345.498 422.24 345.822 424.844C346.416 430.008 346.888 434.214 347.172 437.103C347.409 438.615 347.522 440.148 347.51 441.683Z" fill="#6B6898"/>
<path id="Vector_280" d="M262.368 589.025C262.368 590.405 261.998 591.753 261.307 592.9C260.616 594.047 259.633 594.941 258.483 595.469C257.333 595.997 256.068 596.135 254.847 595.866C253.626 595.597 252.505 594.933 251.625 593.957C250.745 592.982 250.146 591.739 249.903 590.386C249.66 589.033 249.785 587.63 250.261 586.356C250.737 585.081 251.544 583.992 252.579 583.226C253.613 582.459 254.83 582.05 256.075 582.05C256.902 582.048 257.721 582.227 258.485 582.577C259.249 582.927 259.944 583.441 260.528 584.089C261.113 584.737 261.577 585.506 261.892 586.354C262.208 587.201 262.369 588.109 262.368 589.025Z" fill="#263238"/>
<path id="Vector_281" d="M345.281 588.067C345.281 589.447 344.912 590.795 344.221 591.942C343.529 593.089 342.547 593.983 341.397 594.511C340.247 595.039 338.982 595.177 337.761 594.908C336.54 594.639 335.419 593.975 334.539 592.999C333.659 592.024 333.06 590.781 332.817 589.428C332.574 588.075 332.699 586.672 333.175 585.398C333.651 584.123 334.458 583.034 335.493 582.268C336.527 581.501 337.744 581.092 338.989 581.092C340.658 581.092 342.258 581.827 343.438 583.135C344.618 584.443 345.281 586.217 345.281 588.067Z" fill="#263238"/>
<path id="Vector_282" d="M338.948 575.225C338.948 575.449 320.677 575.629 298.153 575.629C275.628 575.629 257.357 575.449 257.357 575.225C257.357 575 275.615 574.836 298.153 574.836C320.691 574.836 338.948 575.015 338.948 575.225Z" fill="#455A64"/>
<g id="Leaf3">
<path id="Vector_283" d="M199.27 323.163C199.167 321.711 199.412 320.255 199.978 318.941C200.545 317.628 201.414 316.502 202.497 315.679C203.598 314.874 204.832 314.319 206.128 314.047C207.424 313.775 208.755 313.79 210.046 314.092C210.651 314.163 211.236 314.379 211.758 314.725C212.28 315.072 212.728 315.54 213.071 316.098C213.309 316.672 213.405 317.307 213.348 317.936C213.291 318.565 213.083 319.165 212.747 319.675C212.05 320.695 211.116 321.487 210.046 321.965C206.521 323.821 202.808 324.959 199.243 323.193" fill="#75FF5E"/>
<path id="Vector_284" d="M193.571 334.119C193.758 333.021 194.048 331.948 194.435 330.916C194.813 329.769 195.316 328.678 195.934 327.668C196.64 326.406 197.426 325.201 198.284 324.061C199.863 321.961 201.885 320.326 204.172 319.301C204.867 319.018 205.586 318.812 206.319 318.687C206.587 318.638 206.861 318.638 207.129 318.687C207.129 318.792 205.995 318.927 204.307 319.72C202.133 320.821 200.209 322.448 198.676 324.48C197.829 325.598 197.044 326.773 196.326 327.997C195.707 328.972 195.182 330.015 194.759 331.111C194.428 332.144 194.031 333.149 193.571 334.119Z" fill="#FF725E"/>
</g>
<g id="Leaf2">
<path id="Vector_285" d="M201.833 286.991C202.829 287.689 203.688 288.601 204.361 289.673C205.034 290.745 205.506 291.955 205.749 293.233C206.211 295.807 206.137 298.463 205.533 301.001C204.507 305.91 201.482 310.61 198.241 314.232C194.852 310.086 194.649 303.59 194.73 300.282C194.865 295.059 197.984 285.704 201.833 286.991Z" fill="#75FF5E"/>
<path id="Vector_286" d="M200.024 294.34C200.074 294.903 200.074 295.469 200.024 296.032C200.024 297.109 199.889 298.681 199.767 300.612C199.51 304.488 199.092 309.832 198.525 315.729C197.957 321.626 197.282 326.925 196.729 330.697C196.445 332.613 196.215 334.154 196.026 335.187C195.957 335.746 195.844 336.297 195.689 336.834C195.684 336.266 195.729 335.7 195.824 335.142C195.972 333.975 196.148 332.433 196.364 330.652C196.823 326.805 197.431 321.492 198.011 315.594C198.592 309.697 199.038 304.473 199.362 300.522C199.537 298.666 199.686 297.124 199.794 295.942C199.835 295.403 199.912 294.867 200.024 294.34Z" fill="#FF725E"/>
</g>
<g id="Leaf1">
<path id="Vector_287" d="M194.307 324.303C193.786 321.274 192.623 318.426 190.914 315.992C189.204 313.559 186.998 311.611 184.476 310.309C183.126 309.665 181.519 309.261 180.492 310.309C179.466 311.356 179.736 313.302 180.276 314.724C181.453 317.726 183.407 320.273 185.889 322.045C188.372 323.817 191.273 324.733 194.226 324.678" fill="#75FF5E"/>
<path id="Vector_288" d="M185.462 314.769C185.717 314.856 185.959 314.988 186.177 315.158C188.907 316.896 191.284 319.24 193.159 322.043C193.897 323.284 194.449 324.648 194.793 326.085C195.059 327.258 195.182 328.467 195.157 329.677C195.139 330.487 195.053 331.294 194.901 332.087C194.866 332.386 194.793 332.678 194.685 332.955C194.577 332.955 194.82 331.683 194.793 329.677C194.767 328.509 194.617 327.349 194.347 326.219C193.985 324.849 193.439 323.547 192.727 322.358C191.363 320.217 189.699 318.332 187.798 316.775C186.983 316.16 186.202 315.49 185.462 314.769Z" fill="#FF725E"/>
</g>
<path id="Vector_289" d="M192.88 371.823C188.402 371.819 184.108 369.844 180.943 366.333C177.778 362.822 176 358.062 176 353.098V334.388H209.76V353.098C209.76 358.062 207.982 362.822 204.817 366.333C201.651 369.844 197.358 371.819 192.88 371.823Z" fill="#FF725E"/>
<path id="Vector_290" d="M209.773 343.594C209.637 343.785 209.483 343.961 209.314 344.117L207.964 345.509L202.819 350.329L202.697 350.434L202.549 350.344L192.812 343.863H193.096L183.927 350.329L183.792 350.434L183.657 350.314L178.053 345.449L176.513 344.072C176.322 343.917 176.15 343.736 176 343.534C176.22 343.633 176.425 343.769 176.608 343.938C177.04 344.282 177.58 344.716 178.228 345.21L183.94 349.91H183.67L192.731 343.294L192.88 343.189L193.028 343.279L202.765 349.895H202.495L207.721 345.21L209.193 343.923C209.571 343.713 209.76 343.564 209.773 343.594Z" fill="#E0E0E0"/>
<path id="Vector_291" d="M209.773 339.852C209.637 340.043 209.483 340.219 209.314 340.375L207.964 341.767L202.873 346.632L202.751 346.737L202.603 346.647L192.812 340.121H193.096L183.981 346.662L183.846 346.767L183.711 346.647L178.107 341.782L176.567 340.405C176.376 340.25 176.204 340.069 176.054 339.867C176.274 339.966 176.479 340.102 176.662 340.271L178.282 341.543L183.994 346.243H183.724L192.785 339.627L192.934 339.522L193.082 339.612L202.819 346.228H202.549L207.775 341.543L209.247 340.256C209.571 339.971 209.76 339.852 209.773 339.852Z" fill="#E0E0E0"/>
<path id="Vector_292" d="M209.773 347.335C209.773 347.335 209.625 347.545 209.314 347.874L207.964 349.251L202.873 354.116L202.751 354.236L202.603 354.131L192.812 347.68H193.096L183.981 354.221L183.846 354.325L183.711 354.221C181.456 352.245 179.551 350.598 178.107 349.356L176.567 347.964C176.216 347.635 176.04 347.455 176.054 347.425C176.27 347.532 176.474 347.668 176.662 347.829C177.094 348.189 177.634 348.608 178.282 349.117L183.994 353.802H183.724L192.785 347.186L192.934 347.081L193.082 347.186L202.819 353.787H202.549L207.775 349.087L209.247 347.814C209.402 347.63 209.58 347.469 209.773 347.335Z" fill="#E0E0E0"/>
<path id="Vector_293" d="M611.175 484C609.958 497.11 615.277 512.5 621.388 523.856C627.608 535.261 636.98 544.194 648.143 549.356C649.387 549.926 650.946 550.406 651.999 549.476C652.373 549.027 652.654 548.494 652.822 547.914C652.99 547.333 653.04 546.72 652.969 546.116C653.06 532.2 649.036 518.627 641.5 507.433C633.965 496.239 623.324 488.027 611.175 484.03" fill="#75FF5E"/>
<g id="Leaf5">
<g id="Group_6" opacity="0.2">
<path id="Vector_294" opacity="0.2" d="M610.173 485C608.971 498.082 614.224 513.438 620.26 524.769C626.404 536.15 635.661 545.063 646.688 550.214C647.916 550.783 649.456 551.262 650.496 550.334C650.866 549.886 651.143 549.354 651.309 548.775C651.475 548.196 651.524 547.584 651.454 546.981C651.544 533.095 647.569 519.552 640.126 508.382C632.683 497.212 622.173 489.018 610.173 485.03" fill="black"/>
</g>
<path id="Vector_295" d="M661.582 577.53C661.441 577.309 661.327 577.067 661.245 576.812L660.394 574.657C659.692 572.801 658.625 570.166 657.275 566.798C653.758 558.207 649.851 549.819 645.567 541.668C641.254 533.525 636.576 525.627 631.55 518.004C629.619 515.085 628.025 512.735 626.904 511.133C626.391 510.385 625.959 509.756 625.635 509.263C625.476 509.054 625.335 508.828 625.216 508.589C625.216 508.589 625.419 508.769 625.729 509.173L627.08 510.954C628.268 512.451 629.916 514.801 631.901 517.689C642.237 532.786 650.901 549.203 657.707 566.589C659.057 569.927 660.002 572.651 660.637 574.552L661.366 576.752C661.459 577.004 661.531 577.264 661.582 577.53Z" fill="#FF725E"/>
</g>
<g id="Leaf4">
<path id="Vector_296" d="M647.764 415.626C640.769 416.884 637.636 426.403 638.312 434.231C638.987 442.059 641.836 449.723 641.012 457.521C640.027 467.444 633.261 475.826 632.478 485.765C631.546 497.485 639.027 507.887 641.255 519.383C642.349 524.98 642.201 530.908 644.078 536.236C645.68 540.775 648.653 544.557 652.489 546.937C656.326 549.318 660.789 550.151 665.117 549.292C669.445 548.434 673.371 545.939 676.225 542.232C679.079 538.524 680.684 533.835 680.768 528.962C680.916 519.981 675.906 511.495 676.514 502.514C676.96 495.883 680.471 489.597 679.728 483.056C678.823 475.198 672.26 469.585 669.938 462.101C667.615 454.617 669.857 446.355 669.046 438.482C667.615 424.367 660.552 414.534 647.778 415.656" fill="#75FF5E"/>
<path id="Vector_297" d="M655.84 451.818C655.916 452.233 655.961 452.653 655.975 453.075C655.975 453.959 656.11 455.156 656.204 456.683C656.393 459.871 656.65 464.391 656.974 469.929C657.609 481.125 658.5 496.587 659.594 513.65C660.688 530.713 661.741 546.175 662.524 557.356C662.902 562.894 663.213 567.399 663.442 570.602C663.537 572.099 663.604 573.311 663.658 574.194C663.691 574.618 663.691 575.043 663.658 575.467C663.658 575.467 663.591 575.033 663.496 574.209C663.402 573.386 663.294 572.129 663.145 570.617C662.875 567.429 662.497 562.924 662.024 557.401C661.12 546.22 659.972 530.788 658.892 513.71C657.811 496.632 657.015 481.17 656.461 469.929C656.231 464.376 656.042 459.871 655.907 456.668C655.907 455.171 655.826 453.944 655.799 453.046C655.779 452.636 655.792 452.225 655.84 451.818Z" fill="#FF725E"/>
</g>
<path id="Vector_298" d="M644.518 562.006H674.078V586.059C674.075 590.229 672.578 594.226 669.917 597.173C667.255 600.12 663.647 601.775 659.886 601.775C656.255 601.777 652.762 600.235 650.126 597.467C647.491 594.699 645.914 590.916 645.72 586.898L644.518 562.006Z" fill="#FF725E"/>
<path id="Vector_299" d="M491.637 233.661L494.878 228.168L496.768 229.455L493.865 234.993L491.637 233.661Z" fill="#6C63FF"/>
<g id="Lamp">
<circle id="Ellipse 1" cx="477.5" cy="260.5" r="7.5" fill="#FAFAFA"/>
<path id="Vector_300" d="M495.944 237.747L565.598 281.019L562.982 286.527L493.942 242.447L495.944 237.747Z" fill="#6C63FF"/>
<path id="Vector_301" d="M557.685 274.179L561.261 276.484L549.599 359.974L544.074 360.049L557.685 274.179Z" fill="#6C63FF"/>
<path id="Vector_302" d="M528.022 368.67C528.022 368.67 536.522 359.031 547.891 359.689C551.14 359.823 554.333 360.676 557.288 362.199C560.242 363.722 562.898 365.886 565.104 368.565L528.022 368.67Z" fill="#6C63FF"/>
<path id="Vector_303" d="M492.581 271.515L465 253.643L473.006 238.181C474.051 236.15 475.443 234.369 477.101 232.94C478.76 231.512 480.653 230.464 482.673 229.856C484.693 229.249 486.8 229.094 488.873 229.4C490.946 229.706 492.945 230.468 494.756 231.641V231.641C498.412 234.011 501.079 237.911 502.173 242.486C503.266 247.06 502.696 251.935 500.587 256.038L492.581 271.515Z" fill="#6C63FF"/>
</g>
</g>
</svg>
